<?xml version="1.0" encoding="UTF-8" standalone="no"?>
<!-- Created with Inkscape (http://www.inkscape.org/) -->

<svg
   xmlns:dc="http://purl.org/dc/elements/1.1/"
   xmlns:cc="http://creativecommons.org/ns#"
   xmlns:rdf="http://www.w3.org/1999/02/22-rdf-syntax-ns#"
   xmlns:svg="http://www.w3.org/2000/svg"
   xmlns="http://www.w3.org/2000/svg"
   xmlns:sodipodi="http://sodipodi.sourceforge.net/DTD/sodipodi-0.dtd"
   xmlns:inkscape="http://www.inkscape.org/namespaces/inkscape"
   width="16.769106mm"
   height="15.913911mm"
   viewBox="0 0 16.769106 15.913911"
   version="1.1"
   id="svg5925"
   inkscape:version="0.92.2 2405546, 2018-03-11"
   sodipodi:docname="route.svg">
  <defs
     id="defs5919" />
  <sodipodi:namedview
     id="base"
     pagecolor="#ffffff"
     bordercolor="#666666"
     borderopacity="1.0"
     inkscape:pageopacity="0.0"
     inkscape:pageshadow="2"
     inkscape:zoom="2.8"
     inkscape:cx="103.38839"
     inkscape:cy="-12.451461"
     inkscape:document-units="mm"
     inkscape:current-layer="layer1"
     showgrid="false"
     inkscape:pagecheckerboard="true"
     fit-margin-top="0"
     fit-margin-left="0"
     fit-margin-right="0"
     fit-margin-bottom="0"
     inkscape:window-width="1600"
     inkscape:window-height="830"
     inkscape:window-x="0"
     inkscape:window-y="33"
     inkscape:window-maximized="1" />
  <metadata
     id="metadata5922">
    <rdf:RDF>
      <cc:Work
         rdf:about="">
        <dc:format>image/svg+xml</dc:format>
        <dc:type
           rdf:resource="http://purl.org/dc/dcmitype/StillImage" />
        <dc:title></dc:title>
      </cc:Work>
    </rdf:RDF>
  </metadata>
  <g
     inkscape:label="Layer 1"
     inkscape:groupmode="layer"
     id="layer1"
     transform="translate(-27.901162,-88.715664)">
    <path
       id="mono_icon_route"
       d="m 43.125021,88.862653 c -1.141492,-0.421749 -2.400327,0.09452 -2.932007,1.15911 l -3.535416,1.047565 c -0.150204,-0.09973 -0.312394,-0.185642 -0.488421,-0.250727 -1.2242,-0.452189 -2.583577,0.173826 -3.035961,1.398022 -0.445982,1.20697 0.157189,2.543111 1.346941,3.014326 l 1.101434,3.577458 c -0.04786,0.08671 -0.09131,0.176831 -0.128958,0.271153 l -3.940122,1.17814 c -0.13298,-0.0819 -0.275776,-0.1526 -0.428176,-0.20888 -1.224385,-0.452185 -2.58355,0.17363 -3.036146,1.39782 -0.4522,1.2244 0.173619,2.58377 1.398217,3.03616 1.19036,0.43957 2.50608,-0.14138 2.993892,-1.29949 l 4.002829,-1.19736 c 0.120756,0.0709 0.247729,0.13437 0.383884,0.18464 1.224201,0.45239 2.583365,-0.17363 3.035962,-1.39782 0.452384,-1.224199 -0.173408,-2.583769 -1.397821,-3.035958 0,-5.29e-4 -0.0026,-7.93e-4 -0.0032,-0.0013 l -1.077967,-3.49936 c 0.04064,-0.06889 0.07811,-0.140584 0.111945,-0.21448 l 3.438473,-1.019127 c 0.167217,0.119155 0.350864,0.220485 0.552714,0.294984 1.223989,0.452189 2.583763,-0.173829 3.035962,-1.398021 0.452596,-1.225196 -0.17362,-2.584768 -1.398032,-3.036957 z m 0.45839,2.689503 c -0.19685,0.532693 -0.710724,0.890759 -1.278255,0.890759 -0.160205,0 -0.318823,-0.02864 -0.471408,-0.08511 -0.266541,-0.09853 -0.489638,-0.274158 -0.647435,-0.503658 -0.03546,0.02643 -0.07512,0.05087 -0.125968,0.06629 l -4.159833,1.233007 c -0.04344,0.01323 -0.08771,0.02003 -0.131577,0.02003 -0.0217,0 -0.04366,-0.0021 -0.06448,-0.0054 -0.01111,0.113747 -0.03503,0.227695 -0.07649,0.339643 -0.08131,0.219884 -0.218493,0.40773 -0.389097,0.555122 0.04284,0.04786 0.07689,0.104537 0.09652,0.168619 l 1.294289,4.202874 c 0.01773,0.05748 0.01958,0.108943 0.0164,0.156403 0,0 0,0 0,0 0.160205,0 0.318612,0.02904 0.471435,0.08511 0.341022,0.125966 0.612775,0.377693 0.76499,0.707922 0.152189,0.330232 0.166608,0.700513 0.04024,1.041753 -0.196664,0.5327 -0.710512,0.89056 -1.27807,0.89056 -0.159994,0 -0.318797,-0.0286 -0.471408,-0.0849 -0.218678,-0.0809 -0.408332,-0.21348 -0.556525,-0.3853 -0.04545,0.04 -0.09872,0.0715 -0.1592,0.0901 l -4.659286,1.39422 c -0.04344,0.0132 -0.0875,0.02 -0.131551,0.02 -0.01429,0 -0.02826,-0.002 -0.04225,-0.004 -0.0079,0.13057 -0.03405,0.26214 -0.0817,0.39111 -0.197061,0.53269 -0.71075,0.89056 -1.278281,0.89056 -0.160205,0 -0.318823,-0.0286 -0.47162,-0.0849 -0.704714,-0.26034 -1.066188,-1.04537 -0.805838,-1.74968 0.19685,-0.5329 0.710538,-0.89076 1.278255,-0.89076 0.16002,0 0.318637,0.0286 0.471434,0.0851 0.236511,0.0875 0.43315,0.2349 0.58174,0.41734 0.04588,-0.0415 0.100144,-0.0741 0.162216,-0.0933 l 4.659683,-1.393613 c 0.04326,-0.01323 0.08771,-0.02003 0.131762,-0.02003 0.0045,0 0.0085,0.0011 0.0127,0.0011 0.0058,-0.140983 0.03286,-0.281969 0.08313,-0.418346 0.07789,-0.211275 0.206851,-0.393112 0.368062,-0.5383 -0.05786,-0.05327 -0.103743,-0.120957 -0.127556,-0.199861 l -1.29368,-4.202314 c -0.01508,-0.04906 -0.01931,-0.09853 -0.01746,-0.147191 -0.142584,-0.0054 -0.283766,-0.03024 -0.420132,-0.0805 -0.341048,-0.125965 -0.612802,-0.377491 -0.765016,-0.707924 -0.152189,-0.33043 -0.166397,-0.70031 -0.04045,-1.041755 0.196876,-0.532696 0.710538,-0.890762 1.278281,-0.890762 0.160205,0 0.318612,0.02864 0.471408,0.08491 0.254318,0.09392 0.462995,0.256736 0.614813,0.458999 0.03844,-0.03204 0.0839,-0.06208 0.143774,-0.0803 l 4.160627,-1.233005 c 0.04326,-0.01323 0.0875,-0.02003 0.131154,-0.02003 0.02884,0 0.05667,0.0036 0.08432,0.009 0.01349,-0.09613 0.03643,-0.191651 0.07088,-0.284771 0.196665,-0.532694 0.710327,-0.890762 1.278678,-0.890762 0.159994,0 0.318823,0.02844 0.471409,0.08491 0.704506,0.260739 1.065794,1.04576 0.805259,1.750679 z"
       inkscape:connector-curvature="0"
       inkscape:label="#path8262"
       style="fill:#ffffff;stroke-width:0.26458332" />
  </g>
</svg>
