<svg enable-background="new 0 0 356.109 322.48" version="1.1" viewBox="0 0 356.109 322.48" x="0px" xml:space="preserve" xmlns="http://www.w3.org/2000/svg" xmlns:xlink="http://www.w3.org/1999/xlink" y="0px">
		<ellipse cx="187.446" cy="230.642" fill="#808080" opacity="0.75" rx="170.858" ry="87.416" transform="matrix(0.9825, -0.1865, 0.1865, 0.9825, -39.724, 39.003)"/>
		<path d="M160.85,318.48c-86.486,0-156.85-70.54-156.85-157.24s70.364-157.24,156.85-157.24,156.85,70.538,156.85,157.24-70.36,157.24-156.85,157.24z" fill="#00FF71"/>
			<path d="M160.85,8c40.824,0,79.207,15.938,108.08,44.876,28.874,28.944,44.776,67.428,44.776,108.36s-15.902,79.42-44.776,108.36c-28.869,28.938-67.252,44.876-108.08,44.876-40.825,0-79.208-15.938-108.08-44.876-28.868-28.94-44.77-67.42-44.77-108.36s15.902-79.42,44.776-108.36c28.870-28.938,67.254-44.876,108.07-44.876m0-8c-88.834,0-160.85,72.189-160.85,161.24,0,89.051,72.016,161.24,160.85,161.24,88.836,0,160.85-72.189,160.85-161.24,0.01-89.051-72.01-161.24-160.85-161.24z"/>
	<path d="M101.55,306.48v-87.879l-32.558-41.86v-106.97l16.279-7.752v83.721c1.942,3.816,22.364,4.345,25.581,0v-83.721h15.504v83.721s23.256,3.686,23.256,0,0-83.721,0-83.721l15.504,8.527v109.303l-35.409,38.416-0.287,96.182-27.86-7.97z" fill="#B4FFD5" stroke="#000" stroke-linejoin="round" stroke-width="8"/>
	<path d="M213.99,309.11v-42.676l-24.79-55.042v-111.76s12.454-32.503,15.546-37.61c2.511-3.974,22.396-17.796,30.673,0v237.30l-21.43,9.79z" fill="#B4FFD5" stroke="#000" stroke-linecap="round" stroke-linejoin="round" stroke-width="8"/>
</svg>