<?xml version="1.0" encoding="UTF-8" standalone="no"?>
<!-- Created with Inkscape (http://www.inkscape.org/) -->
<svg
   xmlns:dc="http://purl.org/dc/elements/1.1/"
   xmlns:cc="http://web.resource.org/cc/"
   xmlns:rdf="http://www.w3.org/1999/02/22-rdf-syntax-ns#"
   xmlns:svg="http://www.w3.org/2000/svg"
   xmlns="http://www.w3.org/2000/svg"
   xmlns:sodipodi="http://inkscape.sourceforge.net/DTD/sodipodi-0.dtd"
   xmlns:inkscape="http://www.inkscape.org/namespaces/inkscape"
   id="svg10681"
   sodipodi:version="0.32"
   inkscape:version="0.43"
   width="236"
   height="352"
   version="1.0"
   sodipodi:docbase="D:\dokumenty\kot\do wiki"
   sodipodi:docname="tourism.svg">
  <metadata
     id="metadata10686">
    <rdf:RDF>
      <cc:Work
         rdf:about="">
        <dc:format>image/svg+xml</dc:format>
        <dc:type
           rdf:resource="http://purl.org/dc/dcmitype/StillImage" />
      </cc:Work>
    </rdf:RDF>
  </metadata>
  <defs
     id="defs10684" />
  <sodipodi:namedview
     inkscape:window-height="682"
     inkscape:window-width="1024"
     inkscape:pageshadow="2"
     inkscape:pageopacity="0.0"
     borderopacity="1.0"
     bordercolor="#666666"
     pagecolor="#ffffff"
     id="base"
     inkscape:zoom="1.4630682"
     inkscape:cx="118"
     inkscape:cy="176"
     inkscape:window-x="-4"
     inkscape:window-y="-4"
     inkscape:current-layer="svg10681" />
  <path
     sodipodi:type="arc"
     style="opacity:1;fill:#000000;fill-opacity:1;fill-rule:evenodd;stroke:#000000;stroke-width:40;stroke-linecap:round;stroke-linejoin:round;stroke-miterlimit:4;stroke-dasharray:none;stroke-dashoffset:0;stroke-opacity:1"
     id="path11603"
     sodipodi:cx="176.31068"
     sodipodi:cy="43.430145"
     sodipodi:rx="3.8834951"
     sodipodi:ry="3.8834951"
     d="M 180.19418 43.430145 A 3.8834951 3.8834951 0 1 1  172.42719,43.430145 A 3.8834951 3.8834951 0 1 1  180.19418 43.430145 z"
     transform="translate(-51.37864,-4.660194)" />
  <path
     style="fill:#000000;fill-opacity:1;fill-rule:evenodd;stroke:#000000;stroke-width:1px;stroke-linecap:butt;stroke-linejoin:miter;stroke-opacity:1"
     d="M 112.62136,63.624319 L 98.640773,63.624319 L 98.640773,43.430144 C 98.640773,43.430144 98.972533,22.418548 76.893203,21.682571 C 53.592233,20.905872 55.145631,46.53694 55.145631,46.53694 L 52.815534,144.40102 C 52.815534,144.40102 51.262136,163.8185 74.563103,166.92529 L 75.339803,190.22626 L 66.796113,322.2651 C 66.796113,322.2651 67.572813,336.24568 82.330093,338.57578 C 97.087383,340.90588 101.74757,326.14859 101.74757,326.14859 L 105.17862,298.14972 L 86.990293,200.32335 L 90.606845,201.14228 L 114.17475,327.70199 C 114.17475,327.70199 121.94174,344.78937 134.36893,342.45927 C 146.79611,340.12918 149.90291,326.14859 149.90291,326.14859 L 140.58252,193.33306 L 142.91262,126.53694 L 147.57281,137.41073 C 147.57281,137.41073 150.67961,141.29423 154.5631,145.17772 C 158.4466,149.06122 186.40776,172.36219 186.40776,172.36219 L 186.40776,333.91558 C 186.40776,333.91558 196.50485,350.22626 201.94174,333.91558 L 201.94174,174.69228 C 201.94174,174.69228 211.26213,175.46898 211.26213,163.8185 C 212.03883,163.0418 208.93204,153.72141 204.27184,152.16801 L 204.27184,145.17772 C 204.27184,145.17772 203.49514,134.30393 195.72815,134.30393 C 195.72815,134.30393 188.73786,136.63403 187.96116,138.96413 L 169.32038,124.20685 L 144.46602,75.274804 C 144.46602,75.274804 132.81553,63.624319 112.62136,63.624319 z "
     id="path12482"
     sodipodi:nodetypes="cccscccccscccccsccccscccccccccccc" />
</svg>
