<?xml version="1.0" encoding="UTF-8" standalone="no"?>
<!-- Created with Inkscape (http://www.inkscape.org/) -->
<svg
   xmlns:svg="http://www.w3.org/2000/svg"
   xmlns="http://www.w3.org/2000/svg"
   version="1.0"
   width="507"
   height="595"
   id="svg2">
  <defs
     id="defs4" />
  <g
     id="layer1">
    <path
       d="M 407.1977,583.02665 C 407.1977,583.02665 248.75138,463.49244 248.75138,197.14306 C 248.75138,463.3427 90.30493,582.64326 90.30493,582.64326 M 207.75741,417.01812 L 290.88936,417.01812 M 180.30099,472.99328 L 316.05773,472.99328 M 353.42897,528.20166 L 143.69242,528.20166"
       style="fill:none;fill-opacity:0.75;fill-rule:evenodd;stroke:black;stroke-width:23.94673157;stroke-linecap:butt;stroke-linejoin:miter;stroke-miterlimit:0;stroke-dasharray:none;stroke-opacity:1"
       id="path1946" />
    <path
       d="M 328.19305,431.26156 A 44.994205,41.465248 0 1 1 328.19316,431.35863"
       transform="matrix(0.939944,0,0,1.025427,-98.8644,-247.2591)"
       style="color:black;fill:black;fill-opacity:1;fill-rule:nonzero;stroke:none;stroke-width:20;stroke-linecap:butt;stroke-linejoin:miter;marker:none;marker-start:none;marker-mid:none;marker-end:none;stroke-miterlimit:0;stroke-dasharray:none;stroke-dashoffset:0;stroke-opacity:1;visibility:visible;display:inline;overflow:visible"
       id="path4616" />
    <path
       d="M 86.8108,4.67276 C -113.87594,228.93386 113.25263,400.02668 113.25263,400.02668 M 124.44345,39.76742 C -59.29338,223.12985 145.06417,363.45177 145.06417,363.45177 M 153.64547,69.42901 C 11.94435,215.30097 171.27334,329.81727 171.27334,329.81727 M 180.0873,104.87454 C 76.35394,210.52945 192.96921,293.00845 192.96921,293.00845 M 204.49515,130.77703 C 126.59379,206.72194 212.63108,262.33445 212.63108,262.33445"
       style="fill:none;fill-opacity:1;fill-rule:evenodd;stroke:#0000d5;stroke-width:7.98224401;stroke-linecap:round;stroke-linejoin:round;stroke-miterlimit:4;stroke-dasharray:none;stroke-opacity:1"
       id="path6394" />
    <path
       d="M 420.1891,3.99112 C 620.876,228.25222 393.7473,399.34503 393.7473,399.34503 M 385.433,37.1578 C 569.1698,220.52023 364.8124,364.69812 364.8124,364.69812 M 353.35443,68.74736 C 495.0556,214.61933 339.56197,327.20765 339.56197,327.20765 M 326.91265,104.19289 C 430.6461,209.84781 314.03074,292.32683 314.03074,292.32683 M 302.5048,130.09539 C 381.365,205.0763 294.36886,261.6528 294.36886,261.6528"
       style="fill:none;fill-opacity:1;fill-rule:evenodd;stroke:#0000d5;stroke-width:7.98224401;stroke-linecap:round;stroke-linejoin:round;stroke-miterlimit:4;stroke-dasharray:none;stroke-opacity:1"
       id="path6404" />
  </g>
</svg>
