<?xml version="1.0" encoding="UTF-8"?>
<svg xmlns="http://www.w3.org/2000/svg" xmlns:xlink="http://www.w3.org/1999/xlink" width="471.41" height="242.17">
<defs>
<linearGradient id="lg1">
<stop stop-color="#7fc0ff" offset="0"/>
<stop stop-color="#7fc0ff" offset="0.155"/>
<stop stop-color="#4074ae" offset="0.75"/>
<stop stop-color="#36486c" offset="1"/>
</linearGradient>
<radialGradient cx="18.248" cy="15.716" r="30" fx="18.248" fy="15.716" id="rg1" xlink:href="#lg1" gradientUnits="userSpaceOnUse" gradientTransform="matrix(11.936,0,0,8.3,-57.628,-63.945)"/>
</defs>
<path d="M467.081,130.99 C467.081,171.673 445.375,208.831 409.579,237.169 L 62.546,237.846 C26.238,209.424 4.185,172 4.185,130.99 C4.185,80.136 38.102,34.792 91.064,5.298 L 378.18,4.185 C432.298,33.645 467.081,79.492 467.081,130.99 L 467.081,130.99z" fill="url(#rg1)" stroke="#39396c" stroke-width="5.514"/>
<path d="M200.625,11.906 C198.851,12.103 197.08,12.412 195.283,12.256 C192.784,12.106 190.369,12.992 187.871,12.95 C185.744,13.012 183.608,12.966 181.508,13.35 C179.884,13.329 178.36,13.775 176.785,14.066 C175.477,14.535 173.971,14.552 172.759,15.143 C172.728,16.307 170.427,15.912 169.389,16.276 C168.449,16.678 165.685,15.964 166.543,17.575 C166.493,18.96 167.972,19.376 169.144,19.259 C170.878,19.046 172.736,19.102 174.367,19.751 C175.625,20.56 175.577,22.315 174.872,23.476 C174.31,24.98 177.591,23.693 177.02,25.135 C176.248,24.934 174.806,24.937 175.744,26.041 C177.303,27.497 174.242,27.124 173.692,28.102 C172.619,29.064 172.678,30.663 173.156,31.906 C172.691,33.63 173.623,35.322 174.525,36.718 C175.661,36.769 176.948,36.557 177.625,37.801 C178.965,38.513 179.857,36.759 180.716,35.991 C180.987,34.524 182.843,34.359 183.3,32.907 C183.881,31.208 185.836,31.582 186.988,30.856 C188.427,31.464 190.331,30.25 191.646,29.427 C192.744,28.145 194.056,28.387 195.55,28.158 C197.664,27.887 199.637,27.077 201.587,26.263 C202.764,25.284 199.176,25.526 200.563,24.735 C201.285,26.054 204.006,25.8 203.012,23.961 C202.556,23.352 200.342,22.63 202.189,22.403 C203.848,22.449 205.554,21.9 206.531,20.469 C207.602,19.78 205.551,18.268 207.374,18.454 C208.646,18.046 207.272,17.114 207.156,16.938 C208.15,16.074 209.354,15.637 210.583,15.166 C211.725,14.485 214.116,14.934 214.447,13.537 C212.541,13.246 210.551,13.287 208.609,13.327 C207.664,13.687 207.988,12.348 206.844,12.485 C204.828,11.928 202.702,11.905 200.625,11.906z M165.781,12.406 C163,12.434 160.32,13.361 157.575,13.595 C156.445,13.272 156.084,14.321 157.251,14.529 C157.774,14.834 159.864,14.685 158.361,15.285 C158.913,16.411 156.642,16.845 155.674,16.953 C154.044,17.136 152.486,17.823 150.991,18.438 C150.762,19.663 153.055,18.772 153.827,18.947 C155.063,18.724 156.294,18.849 157.533,18.949 C159.485,19.227 160.453,17.175 162.412,17.23 C164.104,16.7 165.749,15.984 167.545,15.91 C170.239,15.212 172.9,14.395 175.609,13.751 C176.391,13.634 178.666,13.136 176.787,12.743 C174.016,12.102 171.198,13.181 168.411,12.656 C167.537,12.545 166.659,12.469 165.781,12.406z M153.969,14.156 C152.88,14.859 149.408,14.818 150.814,16.739 C152.488,17.658 154.338,16.309 156.1,16.321 C157.256,16.607 158.05,15.396 156.634,15.021 C155.787,14.62 154.971,13.98 153.969,14.156z M143.063,15.625 C141.262,15.61 142.604,17.478 143.803,17.204 C144.723,17.804 146.264,16.411 144.714,16.122 C144.105,16.091 143.664,15.641 143.063,15.625z M147.031,16.438 C145,17.069 149.637,18.868 148.741,16.92 C148.273,16.512 147.605,16.547 147.031,16.438z M135.313,16.875 C134.535,16.596 132.903,17.718 134.406,17.813 C135.145,18.242 137.477,17.302 135.883,16.891 L 135.599,16.871 L 135.313,16.875 L 135.313,16.875z M306.063,17.375 C304.38,17.137 303.925,19.095 302.169,18.63 C300.427,18.755 298.704,19.117 296.997,19.454 C296.258,19.964 294.151,20.048 295.058,21.191 C293.725,21.456 292.33,21.302 291,21.625 C289.97,22.158 292.233,23.428 290.504,23.006 C289.254,23.07 288.082,23.711 287.084,22.643 C286.197,22.555 286.889,23.603 285.906,23.237 C284.745,22.279 281.744,21.475 281.381,23.399 C281.502,24.143 279.712,24.721 280.969,25.406 C281.204,26.811 282.86,26.758 283.531,27.594 C281.349,27 279.317,25.579 276.969,25.844 C276.075,25.569 275.16,26.431 276.011,27.06 C274.459,26.668 272.855,27.147 271.281,27.344 C269.85,26.464 268.547,27.574 267.176,27.953 C266.156,27.988 265.405,28.587 264.951,29.287 C264.29,29.309 262.645,28.694 264.028,28.401 C264.786,27.065 261.654,27.161 261.218,27.673 C261.832,28.223 261.466,29.336 262.006,29.759 C260.783,29.933 259.197,30.558 258.584,31.493 C259.687,32.753 257.192,31.3 256.64,31.304 C255.262,31.091 256.135,32.66 256.557,32.73 C254.765,32.732 254.764,30.845 253.626,30.279 C255.139,30.686 256.798,30.966 258.343,30.494 C260.077,30.229 259.76,28.174 258.152,27.979 C256.03,26.865 253.585,26.807 251.357,26 C250.512,26.031 249.784,25.961 249.584,25.114 C248.023,24.676 246.393,24.611 244.789,24.672 C243.111,24.3 241.957,25.542 240.429,25.822 C238.636,24.866 238,27.353 236.405,27.689 C235.509,29.215 233.643,29.831 232.986,31.5 C231.771,32.68 230.442,33.629 228.801,34.03 C227.649,35.022 225.372,35.14 226.095,37.151 C226.406,38.461 226.437,40.561 228.16,40.714 C229.552,40.809 230.569,39.295 231.74,39.162 C232.145,40.262 232.895,41.166 233.625,42.063 C234.344,43.592 230.987,42.834 232.313,44.438 C231.404,44.968 233.539,45.788 232.084,45.368 C229.911,44.732 231.778,42.661 231.677,41.191 C230.317,40.697 228.412,42.696 229.05,44.153 C229.937,44.929 229.611,46.577 228.258,46.036 C227.015,46.91 225.08,46.713 224.656,48.531 C223.848,49.383 222.373,49.467 221.913,50.576 C221.201,51.651 219.721,52.091 218.608,51.46 C217.931,51.952 218.421,53.386 217.011,52.625 C215.677,52.076 213.917,53.63 215.875,54.273 C217.81,54.558 219.326,56.9 218.44,58.757 C218.417,60.952 215.89,59.788 214.544,59.847 C212.906,59.864 211.129,59.164 209.858,60.46 C209.593,61.85 210.064,63.5 209.418,64.893 C208.705,65.815 208.738,66.772 209.318,67.722 C208.591,70.141 212.13,68.013 212.515,69.989 C213.93,70.643 215.487,69.443 217.022,69.579 C218.238,68.935 219.678,67.573 219.636,66.303 C219.589,64.964 221.126,63.618 222.46,63.236 C224.251,62.742 222.952,59.721 225.3,60.286 C227.156,61.339 228.495,59.545 230.121,59.141 C231.511,59.772 231.821,61.572 233.206,62.3 C234.612,63.13 236.035,63.877 237.313,64.906 C238.724,66.434 236.802,67.731 235.261,67.334 C234.274,66.888 233.254,67.968 234.544,68.364 C235.392,68.661 237.215,70.322 237.206,68.439 C237.44,67.412 239.026,67.525 239.133,66.196 C238.867,65.475 238.7,64 239.882,64.829 C241.338,65.654 240.694,63.531 239.625,63.438 C238.26,62.761 237.136,61.879 235.813,61.125 C235.463,59.908 232.923,58.769 234.261,57.608 C235.95,56.972 236.726,59.235 238,59.938 C239.322,60.422 240.6,61.281 241.414,62.44 C241.579,64.079 242.185,65.594 243.286,66.881 C244.34,67.895 244.062,69.96 246.022,69.648 C247.105,69.468 245.617,67.329 245.667,67.48 C246.774,68.582 247.748,67.027 246.609,66.17 C246.806,65.361 245.677,64.351 247.071,64.233 C247.636,63.398 249.36,64.261 249.806,64.368 C248.478,65.255 251.062,66.589 249.709,67.321 C250.698,67.979 250.681,69.973 252.281,69.345 C253.21,69.853 254.315,70.571 255.111,69.429 C256.491,69.6 257.825,71.358 259.189,69.818 C260.036,69.858 261.287,69.291 260.92,70.589 C261.104,72.077 260.573,73.388 260.188,74.781 C260.273,76.809 258.134,77.716 256.554,76.564 C255.012,75.709 253.744,78.083 252.21,76.821 C250.607,76.416 248.969,76.143 247.441,75.494 C246.389,74.959 245.222,74.115 243.957,74.752 C242.513,75 242.343,76.391 242.605,77.539 C241.149,78.644 239.93,76.146 238.258,76.572 C237.438,75.76 236.853,74.242 235.289,74.622 C233.859,74.751 232.428,74.095 231.5,73.031 C232.082,72.117 232.642,71.058 232.011,70.093 C232.97,69.386 231.982,68.605 231.356,68.637 C230.07,68.376 228.689,69.07 227.273,68.782 C226.037,69.483 224.8,68.555 223.468,69.087 C222.102,69.544 220.374,69.053 219.308,70.216 C218.056,71.209 216.65,71.602 215.076,71.286 C213.86,72.057 213.03,69.411 212.211,71.198 C211.714,73.237 209.566,73.811 208.345,75.287 C207.224,76.683 208.096,78.704 206.575,79.856 C205.633,81.308 203.167,80.832 203.156,82.898 C202.213,83.575 200.871,84.218 201.344,85.71 C200.237,87.173 198.753,88.613 198.42,90.612 C198.273,91.709 199.676,92.257 199.03,93.574 C199.709,95.28 199.008,97.139 198.333,98.716 C197.455,99.566 197.847,100.321 198.5,101.156 C197.485,103.168 199.449,104.276 200.64,105.475 C201.502,106.469 202.508,107.382 202.69,108.772 C203.128,110.317 205.049,110.456 205.656,111.931 C207.069,112.489 207.911,114.193 209.503,114.363 C211.336,113.87 213.177,112.798 215.106,113.531 C216.779,114.297 218.278,112.719 219.894,112.367 C221.324,111.7 223.288,111.198 224.658,112.2 C225.107,113.048 225.947,113.719 226.559,114.391 C227.36,115.038 230.192,113.588 230.737,115.031 C231.694,117.329 229.193,120.148 229.88,122.248 C230.787,124.227 232.638,125.566 233.563,127.531 C233.432,129.367 235.396,130.672 234.992,132.525 C234.526,134.033 236.166,135.372 235.563,136.906 C234.473,138.249 233.896,139.71 233.559,141.412 C233.141,142.721 232.85,144.181 233.165,145.535 C233.919,146.804 234.382,148.205 235.052,149.513 C236.096,150.841 236.78,152.228 236.342,153.945 C236.766,155.5 236.657,157.175 237.365,158.663 C238.157,160.031 239.663,160.931 239.666,162.713 C239.838,163.89 241.461,165.125 240.211,166.11 C240.423,167.736 241.833,169.311 243.604,168.413 C245.322,168.021 247.076,168.092 248.84,167.803 C250.252,167.431 251.759,167.073 252.789,165.951 C253.92,164.727 255.223,163.618 255.952,162.086 C256.464,161 257.779,160.548 257.995,159.32 C258.843,158.223 257.876,156.41 259.031,155.75 C260.734,155.683 261.864,154.163 261.864,152.539 C262.374,150.8 260.116,148.781 261.934,147.519 C263.225,146.506 264.103,145.064 265.724,144.51 C267.364,143.586 268.832,141.882 268.576,139.877 C268.278,138.119 268.573,136.256 268.284,134.577 C266.792,133.397 267.134,131.237 267.396,129.683 C265.641,128.343 267.697,126.725 268.115,125.25 C268.374,123.661 270.162,123.204 270.719,121.813 C271.865,120.225 273,118.484 274.819,117.608 C277.342,115.965 278.562,113.06 279.763,110.423 C280.492,108.752 281.558,107.126 281.442,105.227 C281.925,103.928 280.747,103.08 279.751,104.092 C278.368,104.775 276.749,104.552 275.555,105.356 C274.441,104.766 273.219,106.367 272.348,104.823 C271.868,103.612 271.622,102.226 270.384,101.369 C269.693,99.926 268.168,99.687 267.135,98.688 C266.457,97.158 266.412,95.315 264.725,94.458 C263.983,93.008 264.297,91.203 263.434,89.754 C262.293,88.377 261.27,87.011 260.755,85.218 C260.074,83.898 259.136,81.949 258.711,80.973 C259.303,81.786 260.306,81.954 260.302,80.75 C260.84,82.077 261.968,83.354 262.779,84.667 C263.4,86.304 264.902,87.256 265.57,88.841 C266.106,90.123 265.931,91.828 267.312,92.611 C268.797,93.4 268.763,95.287 270.026,96.243 C271.118,97.317 270.568,99 271.271,100.275 C271.483,101.562 271.552,103.3 273.406,102.875 C274.886,102.169 276.4,101.504 277.979,101.036 C279.046,99.847 280.746,100.128 282,99.264 C282.637,98.597 282.152,97.453 283.458,97.465 C284.573,96.967 285.825,96.851 286.49,95.784 C287.611,95.553 287.906,94.383 288.977,94 C288.583,92.497 290.111,91.992 290.493,90.702 C291.3,89.645 290.376,88.647 289.689,87.833 C289.071,86.76 287.567,87.745 287.219,86.32 C286.361,85.768 286.4,82.765 285.351,84.548 C284.803,86.484 282.65,87.198 280.914,86.497 C280.768,85.955 281.243,83.745 279.989,84.029 C279.744,84.487 279.028,85.278 279.274,84.156 C279.089,82.323 276.639,81.817 276.456,79.849 C276.629,77.526 279.696,79.061 279.683,80.765 C280.576,82.463 282.815,83.198 284.581,83.684 C285.616,83.54 287.081,82.423 287.24,84.193 C288.565,85.532 290.916,85.215 292.688,85.688 C294.661,85.869 296.589,85.188 298.563,85.313 C299.174,86.742 300.553,87.582 301.677,88.559 C302.409,88.959 303.294,88.816 302.069,89.144 C301.681,90.231 303.649,90.641 304.037,91.61 C305.333,92.064 306.311,90.914 306.25,89.813 C306.34,91.583 306.805,93.27 307.054,95.027 C307.39,96.616 308.109,98.078 308.697,99.576 C309.889,101.168 310.063,103.229 311.127,104.886 C311.892,106.194 312.103,107.877 313.253,108.921 C314.617,108.948 315.62,107.311 316.24,106.203 C317.169,105.446 316.011,103.905 316.839,102.871 C317.396,101.47 316.44,100.012 316.781,98.656 C318.293,97.848 319.345,96.634 320.492,95.391 C321.243,93.809 323.087,93.216 323.901,91.82 C323.652,89.877 326.491,90.396 327.756,89.807 C329.469,88.287 329.442,91.343 330.596,92.087 C331.574,93.064 332.514,94.042 332.942,95.425 C333.507,96.744 332.577,98.625 334.563,98.781 C335.418,98.394 336.532,97.673 336.585,97.011 C337.308,98.613 337.831,100.286 338.654,101.847 C339.494,103.407 338.924,105.119 339.133,106.74 C338.975,107.987 338.657,109.638 340.051,109.965 C341,111.297 341.988,112.686 342.18,114.367 C342.69,115.766 343.176,117.404 344.75,117.955 C345.442,118.711 347.209,119.157 346.716,117.53 C345.528,115.93 346.458,113.587 344.751,112.262 C343.504,111.097 341.86,110.283 341.579,108.466 C341.551,107.151 339.745,107.229 340.417,105.735 C341.036,104.538 340.734,102.75 341.289,101.819 C341.743,102.416 342.04,103.2 343.063,102.938 C343.914,103.727 344.643,104.651 345.142,105.669 C345.748,106.219 345.975,106.401 346.647,106.373 C347.016,107.092 346.737,109.539 348.094,108.25 C349.13,107.281 349.477,106 350.892,105.621 C352.037,104.986 352.651,103.666 352.348,102.383 C351.89,100.737 351.524,99.013 350.233,97.782 C349.198,96.587 347.949,95.547 347.144,94.181 C346.826,92.611 348.376,90.329 350.038,90.579 C351.053,90.467 351.586,93.394 352.219,91.695 C351.802,89.78 354.947,91.077 355.594,89.469 C356.609,90.49 357.686,88.422 358.903,88.409 C360.125,87.296 361.538,86.051 361.948,84.407 C362.384,82.54 363.467,80.765 363.188,78.781 C362.922,77.99 361.289,78.537 362.504,77.651 C362.666,75.824 360.518,74.924 359.938,73.298 C359.607,72.278 358.393,72.088 357.781,71.688 C358.057,70.397 359.246,69.493 360.426,69.053 C360.541,67.868 358.597,68.536 357.936,67.852 C357.202,68.163 356.387,69.14 356.022,67.77 C355.934,66.643 353.657,67.534 354.063,66.375 C355.741,66.616 355.506,63.158 357.256,64.354 C357.262,65.221 357.472,67.455 358.741,66.119 C359.645,64.74 362.597,65.272 361.955,67.203 C362.605,68.418 365.42,67.484 364.625,69.563 C365.524,70.389 365.424,71.773 366.113,72.716 C367.262,72.354 369.865,72.072 368.823,70.306 C368.088,68.493 366.644,67.059 365.056,65.975 C363.913,64.744 366.865,64.017 365.845,62.492 C365.626,61.281 366.888,60.261 367.813,61.287 C369.757,61.743 370.119,59.514 370.378,58.135 C371.007,56.831 370.968,55.384 371.241,53.996 C371.93,52.28 370.388,51.028 369.542,49.752 C369.143,49.24 368.907,47.942 369.687,49.066 C370.849,49.794 371.414,51.113 372.265,52.137 C372.944,53.276 373.725,54.345 374.364,55.511 C374.811,56.816 375.93,57.011 376.657,55.978 C375.792,54.912 374.347,54.164 374.061,52.687 C374.72,52.587 375.359,52.247 374.409,51.668 C372.528,50.775 371.756,48.64 370.197,47.356 C369.314,47.087 368.63,45 367.858,45.658 C367.869,46.346 368.647,47.874 367.661,46.651 C366.594,45.951 364.864,44.966 363.744,45.61 C363.872,46.634 361.781,45.507 361.725,44.768 C360.741,44.64 359.573,44.636 360.562,43.504 C360.976,42.051 361.383,40.533 362.157,39.285 C363.876,38.823 365.674,39.3 367.424,38.988 C369.118,38.08 370.58,39.889 372.261,39.507 C373.09,39.504 375.158,38.985 373.515,38.276 C372.565,37.582 373.194,35.376 374.679,36.065 C376.077,35.988 377.697,38.454 378.602,36.214 C379.684,35.95 377.528,34.446 378.712,35.159 C379.152,36.116 380.533,36.936 379.21,37.773 C378.692,38.866 379.958,40.198 378.389,40.625 C377.622,41.725 379.038,43.316 379.848,44.26 C380.891,45.272 382.09,46.122 382.971,47.3 C383.945,48.227 385.065,49 386.096,49.857 C388.055,49.597 385.186,46.959 387.145,46.774 C387.133,46.148 385.609,45.381 386.919,45.275 C388.021,43.917 385.383,43.475 385.673,42.104 C384.985,40.928 383.885,40.402 382.703,40.023 C382.549,39.324 381.682,37.986 383.045,38.264 C383.797,37.38 384.826,39.415 385.297,37.75 C386.398,37.53 387.857,38.771 388.567,37.331 C389.02,35.495 390.82,34.906 392.504,35.22 C394.229,34.281 391.355,33.709 390.606,33.382 C389.716,32.977 388.471,32.543 389.829,31.79 C390.964,30.752 392.48,32.085 393.783,32.257 C394.755,32.646 397.898,33.69 396.936,31.753 C395.922,31.183 397.901,31.111 396.674,30.558 C394.76,29.209 392.307,29.425 390.188,28.688 C387.94,27.646 385.5,27.115 383.055,26.819 C380.187,26.133 377.231,25.941 374.306,25.642 C373.396,25.475 372.359,25.648 372.678,26.518 C369.827,25.754 366.823,26.237 363.936,25.74 C362.547,24.714 360.784,24.691 359.128,24.457 C357.308,24.485 355.365,24.893 353.668,24.007 C351.9,23.629 350.173,23.035 348.339,23.019 C346.55,22.854 344.753,22.726 342.969,22.531 C342.4,22.528 341.592,23.423 342.438,23.719 C340.877,23.491 339.382,24.058 337.833,23.922 C336.82,23.309 336.061,23.788 336.59,24.719 C334.739,24.158 333.725,22.446 331.903,21.923 C330.551,21.582 329.136,22.322 327.879,21.48 C327.133,21.136 326.36,21.768 326.462,22.137 C325.071,22.083 323.7,21.787 322.3,21.825 C320.59,21.678 318.877,21.586 317.188,21.281 C316.121,21.412 314.924,22.347 313.906,21.938 C314.622,21.096 317.72,20.207 315.6,19.119 C313.742,18.05 311.506,18.732 309.548,18.01 C308.351,17.943 307.25,17.423 306.063,17.375z M129.094,17.625 C127.253,17.815 125.298,17.796 123.591,18.618 C122.795,19.798 125.487,19.397 126.139,19.191 C127.238,18.536 129.788,19.074 130.014,17.854 C129.743,17.681 129.411,17.619 129.094,17.625z M145.594,18 C143.752,19.502 149.175,19.31 147.065,18.169 C146.593,18.009 146.088,17.995 145.594,18z M130.5,18.406 C129.233,18.953 127.478,18.805 126.659,20.08 C127.926,20.746 129.838,20.805 131.352,20.822 C132.946,20.552 134.644,20.848 136.172,20.288 C137.267,19.73 136.622,18.666 135.563,19.281 C135.245,17.439 133.478,19.518 132.738,19.565 C131.933,19.3 131.241,18.78 130.5,18.406z M142.594,18.406 C141.378,17.903 138.985,19.703 141.027,20.292 C141.991,20.375 144.352,19.594 143.844,18.5 C143.432,18.429 143.012,18.4 142.594,18.406z M138.75,18.438 C136.827,18.98 140.273,20.781 139.893,18.955 C139.684,18.559 139.182,18.349 138.75,18.438z M148.75,18.5 C148.142,18.986 146.807,19.683 147.051,20.482 C148.765,20.773 150.587,20.67 152.304,21.094 C153.809,21.206 155.677,21.193 156.706,19.917 C156.893,18.434 154.308,19.473 153.352,19.249 C151.779,19.535 150.359,19.148 149.031,18.5 L 148.75,18.5z M144.875,19.656 C143.236,19.314 143.339,21.2 144.859,20.971 C146.117,21.108 146.324,19.375 144.875,19.656z M122.125,20.563 C120.578,20.758 118.947,20.795 117.6,21.672 C116.582,22.351 114.37,22.453 114.426,23.91 C115.534,25.432 117.3,24.068 118.737,23.866 C120.038,23.408 119.767,25.315 119.227,25.633 C117.478,26.635 120.368,27.157 121.094,27.563 C123.074,27.788 125.026,27.298 126.952,26.932 C128.729,27.45 130.861,27.873 132.343,26.59 C134.006,26.364 133.01,25.201 132.228,24.695 C132.803,23.764 133.651,21.731 131.683,21.85 C130.906,21.72 129.829,23.676 129.726,23.162 C129.391,21.618 127.747,23.06 126.764,22.366 C125.335,23.078 125.696,20.264 124.076,20.964 C123.355,21.175 122.712,21.026 122.125,20.563z M143.906,21.031 C142.773,21.035 140.555,22.368 141.384,23.481 C142.625,23.093 143.974,23.148 145.205,22.742 C145.882,22.338 147.68,21.349 145.844,21.278 C145.184,21.272 144.545,21.187 143.906,21.031z M140.25,21.094 C139.026,21.25 137.235,20.782 136.902,22.359 C135.8,22.168 134.794,23.282 136.086,24 C137.414,24.993 139.898,24.145 140.332,22.608 C140.509,21.985 141.683,21.126 140.25,21.094z M155.406,21.344 C153.684,21.587 156.55,23.408 154.86,22.969 C153.313,23.464 155.077,21.471 153.519,21.626 C152.375,21.251 150.193,22.417 150.055,22.454 C151.366,21.966 150.664,21.289 149.6,21.595 C147.937,21.455 146.553,22.266 145.365,23.355 C143.71,24.416 145.215,25.832 146.563,26.063 C145.669,27.159 144.026,29.19 142.682,28.53 C143.757,28.107 143.689,26.228 142.323,27.013 C141.324,27.976 142.333,26.057 141.094,26.063 C142.476,25.773 141.93,22.901 140.37,23.787 C139.232,24.142 137.996,24.709 137.476,25.849 C137.96,26.47 138.496,26.988 137.438,27.5 C136.117,29.087 134.514,27.108 133.008,28.083 C131.417,27.99 129.441,28.768 128.137,27.586 C127.023,26.903 125.418,27.256 124.372,27.847 C122.761,28.241 120.806,28.475 119.053,28.331 C118.862,28.297 120.068,27.577 119.157,27.172 C117.8,26.92 116.506,26.989 115.337,26.079 C113.765,25.603 112.093,26.478 110.706,26.109 C110.413,24.485 108.474,26.056 107.353,25.607 C105.739,25.767 104.179,26.259 102.549,26.296 C101.285,26.867 100.108,26.821 98.871,26.258 C97.457,25.955 96.207,25.206 94.67,25.501 C92.874,25.549 91.16,24.92 89.379,24.804 C87.981,24.47 86.531,24.137 85.139,24.633 C83.115,24.789 80.97,24.618 79.118,25.6 C77.526,26.025 76.048,26.84 74.379,26.946 C73.289,26.96 71.756,27.666 72.796,28.841 C73.115,29.513 74.225,30.09 72.772,30.144 C71.427,30.509 70.146,29.65 68.716,30.297 C67.358,30.216 65.554,31.153 66.323,32.608 C67.492,32.469 69.7,32.651 70.225,32.561 C69.269,33.521 67.901,33.365 66.721,33.81 C65.316,34.233 63.951,34.768 62.625,35.406 C61.151,35.616 60.164,37.156 60.245,38.461 C60.696,39.295 62.928,37.959 61.393,39.1 C60.152,40.463 62.853,39.7 63.542,39.853 C65.41,40.127 62.427,40.896 61.875,41.2 C60.212,41.689 58.991,43.093 57.249,43.345 C56.87,43.922 58.858,43.936 59.344,43.656 C61.714,42.411 64.297,41.64 66.736,40.541 C68.616,40.035 70.096,38.83 71.938,38.219 C72.559,37.907 73.447,37.639 72.386,38.228 C71.047,38.956 72.314,39.587 73.202,39.056 C74.544,38.641 76.207,38.6 76.906,37.219 C78.501,36.036 79.477,38.171 81.158,37.905 C82.277,38.379 84.023,38.024 84.534,39.323 C84.549,40.603 87.09,40.3 85.877,41.675 C86.536,42.666 86.445,43.715 86.621,44.783 C85.414,45.588 86.315,47.195 85.977,48.335 C84.788,50.158 87.723,50.485 88,52.189 C88.516,53.832 87.123,51.435 86.972,50.845 C86.112,49.989 83.87,50.223 85.036,51.808 C87.02,53.132 85.395,55.389 84.49,56.925 C83.447,58.491 82.162,59.876 81.029,61.366 C80.693,62.432 80.172,63.423 79.438,64.281 C78.504,66.087 79.898,67.852 79.418,69.7 C79.583,71.11 79.232,73.032 81.2,73.08 C82.783,73.842 82.489,75.684 82.728,77.149 C82.398,78.733 83.803,79.853 83.844,81.25 C81.858,81.979 83.948,83.865 85.103,83.996 C85.502,85.022 84.826,86.436 86.337,86.845 C86.722,87.373 87.613,89.254 87.949,87.606 C87.089,85.95 86.657,84.103 86.112,82.278 C85.911,80.393 83.937,78.857 84.884,76.9 C85.584,76.305 86.931,77.252 86.484,78.356 C86.204,80.346 88.052,81.618 88.586,83.393 C88.888,84.494 89.012,85.473 90.125,86.156 C91.022,87.286 91.698,88.62 92.264,89.933 C92.279,91.308 91.132,93.325 93.072,94.074 C94.414,95.265 96.065,95.995 97.588,97 C99.193,97.575 100.755,98.642 102.512,98.555 C103.6,98.148 104.929,97.925 105.676,99.064 C106.504,100.269 107.714,101.167 109.055,101.232 C110.308,102.655 112.963,101.794 113.436,104.097 C113.913,105.334 114.82,103.571 115.188,104.688 C113.721,104.84 114.005,107.181 115.492,107.217 C116.701,107.962 117.315,109.474 118.973,109.418 C119.583,110.545 121.386,110.384 120.941,108.918 C121.854,107.514 123.504,108.755 123.234,110.058 C124.335,111.482 124.164,113.405 123.796,115.055 C123.414,116.509 122.008,117.237 121.695,118.673 C119.963,118.848 120.43,120.895 119.504,122.023 C119.064,123.167 120.143,124.047 120.454,124.737 C119.398,125.659 118.462,127.021 119.432,128.328 C119.277,129.767 121.269,129.854 121.558,131.219 C122.37,133 123.588,134.515 124.412,136.295 C125.323,138.025 126.015,139.88 127.309,141.363 C128.226,142.706 130.014,142.759 131.273,143.664 C132.431,144.604 134.014,145.424 134.167,147.095 C134.665,149.816 134.383,152.608 134.794,155.341 C134.842,156.702 135.188,158.033 134.916,159.406 C134.874,161.055 135.03,162.746 135.5,164.344 C135.84,165.908 136.058,167.522 135.697,169.103 C135.866,170.566 135.018,172.074 135.829,173.377 C136.496,174.998 136.358,176.873 137.227,178.416 C139.221,178.817 138.751,181.309 139.281,182.844 C139.247,184.729 140.983,186.167 140.772,188.053 C141.34,189.701 142.665,190.927 143.142,192.594 C144.027,193.852 145.886,195.276 147.125,193.563 C147.946,193.292 147.32,194.815 148.359,194.776 C148.666,196.59 150.402,196.147 151.787,196.282 C152.788,196.801 155.018,196.105 152.964,195.523 C151.507,194.936 149.76,194.215 149.276,192.579 C148.106,191.616 147.095,190.252 148.164,188.793 C148.314,187.698 150.432,186.558 148.805,185.561 C147.348,185.432 145.724,183.743 147.636,182.85 C149.31,182.363 146.924,179.512 148.918,179.877 C149.731,178.242 146.963,179.311 147,177.719 C146.797,176.805 148.882,178.398 149.438,177.469 C151.018,176.875 148.277,174.2 150.117,174.641 C151.811,174.704 154.35,174.34 154.488,172.216 C155.022,170.962 153.752,169.919 153.156,168.963 C152.552,168.742 151.561,168.045 152.875,168.531 C154.535,169.042 156.936,169.763 157.588,167.458 C158.648,166.244 158.131,163.501 159.808,163.126 C160.451,162.261 160.652,160.954 161.682,160.261 C162.365,158.723 161.034,157.015 161.765,155.493 C162.744,154.075 164.522,153.776 165.916,152.943 C167.556,152.572 169.331,152.573 170.156,150.82 C170.14,149.016 171.667,147.622 171.438,145.75 C172.294,144.1 172.033,142.216 171.691,140.46 C171.573,138.47 173.347,137.176 174.152,135.516 C176.157,133.624 177.147,130.409 175.83,127.866 C174.783,126.818 172.953,127.047 172.111,125.612 C170.98,124.102 169.162,124.133 167.5,124.063 C166.543,123.649 165.379,123.244 164.481,123.551 C163.957,121.869 161.509,121.093 159.92,121.237 C159.749,119.937 157.262,120.59 157.648,118.779 C157.518,117.523 156.5,116.478 156.35,115.144 C155.572,113.677 154.139,112.439 152.454,112.124 C151.133,111.644 149.437,112.435 148.426,111.166 C147.267,110.305 146.905,108.362 145.13,108.329 C144.414,108.065 144.997,106.794 143.938,106.594 C145.544,106.551 144.265,104.191 143.536,105.666 C143.489,106.721 142.666,106.283 143.205,105.495 C141.521,104.447 139.589,106.871 137.907,105.383 C136.743,105.361 135.755,105.119 135.044,104.273 C134.142,104.482 133.638,102.778 133.133,104.119 C132.618,104.365 131.023,105.678 131.65,104.444 C133.256,103.712 131.516,102.281 130.694,103.551 C129.49,104.767 127.055,104.229 126.411,106.072 C126.2,107.033 124.759,109.406 124.023,107.779 C122.465,105.838 120.62,108.294 118.893,107.574 C117.47,106.891 116.444,105.307 117.175,103.739 C117.367,102.344 118.027,101.03 118.041,99.627 C117.246,97.882 114.813,97.9 113.121,98.437 C112.092,98.637 111.387,98.061 112.275,97.223 C112.362,95.836 113.518,94.911 113.849,93.596 C113.929,92.507 114.649,91.571 114.789,90.609 C113.448,89.809 110.8,90.176 110.055,91.613 C109.868,93.087 109.126,94.839 107.336,94.435 C105.964,94.484 104.78,95.025 103.678,93.93 C102.204,92.414 102.111,90.1 102.292,88.106 C102.398,86.246 103.839,84.756 103.765,82.876 C104.351,81.076 106.444,80.633 107.921,79.777 C109.577,78.486 111.446,80.065 113.285,79.882 C114.789,80.331 113.331,78 114.876,78.7 C116.359,78.219 118.196,77.962 119.12,79.401 C120.619,78.344 121.5,80.264 121.049,81.542 C121.204,82.921 121.754,84.704 122.835,85.426 C124.468,84.853 124.635,82.783 124.2,81.351 C123.836,79.732 123.332,77.811 124.649,76.478 C125.458,75.342 126.794,74.776 127.87,73.932 C129.013,73.342 129.979,72.504 131.231,72.149 C132.246,70.814 132.857,69.175 132.846,67.371 C133.57,68.648 134.277,66.084 135.172,65.803 C136.231,64.248 137.77,63.175 139.7,62.99 C141.738,62.876 140.986,60.033 143.063,59.719 C144.711,58.954 146.36,58.2 148.139,57.577 C148.797,57.241 149.573,57.35 148.544,57.732 C147.655,58.096 145.815,60.037 147.754,60.07 C148.576,58.835 149.833,58.654 151.14,58.334 C151.819,57.897 154.215,57.596 152.431,56.831 C150.593,57.057 149.531,54.951 150.737,53.672 C152.74,52.609 150.039,51.343 148.891,52.083 C147.916,52.126 146.046,53.535 146,53.295 C147.251,52.222 148.862,51.255 150.483,51.176 C152.312,51.064 154.155,51.087 155.966,51.195 C157.633,50.957 158.731,49.208 160.477,49.39 C159.525,50.413 158.263,52.057 157.109,53.238 C156.087,53.625 155.513,55.108 157.137,54.798 C158.641,54.797 160.077,54.342 161.251,55.298 C162.42,56.411 163.8,54.458 162.682,53.921 C162.795,52.943 163.994,51.049 162.066,51.577 C160.939,52.3 160.385,50.562 161.444,50.129 C161.95,48.716 163.516,46.826 161.749,45.623 C161.718,44.098 159.115,44.656 159.094,42.844 C159.564,41.297 158.641,39.571 158.238,37.99 C157.242,37.662 156.245,39.224 155.2,39.616 C153.713,40.622 152.283,38.706 153.598,37.496 C153.493,36.439 151.939,36.102 151.436,35.108 C150.297,34.922 148.979,35.073 147.789,34.534 C146.137,34.881 145.617,36.836 145.28,38.27 C144.721,39.116 142.337,39.402 143.881,40.645 C144.169,42.219 142.492,43.364 141.173,43.85 C139.819,44.195 138.567,44.868 138.673,46.457 C138.705,47.888 137.15,49.116 136.073,49.006 C134.509,47.465 136.529,45.764 136.854,44.398 C135.287,43.738 133.3,43.991 132.021,42.565 C131.254,41.565 129.751,41.1 128.583,41.628 C128.283,40.916 129.557,39.213 127.973,39.4 C128.961,37.454 130.985,36.263 132.906,35.356 C134.565,34.875 136.063,34.458 137.439,33.356 C138.83,33.047 140.213,31.944 141.305,31.465 C140.846,32.512 138.786,33.656 140.92,34.155 C142.153,33.665 143.475,32.636 144.72,33.693 C146.336,33.187 144.305,31.887 144.025,30.993 C142.609,30.091 145.248,30.433 145.787,30.483 C147.549,29.993 148.239,28.435 149.5,27.375 C150.654,26.117 146.309,25.632 148.849,25.978 C150.569,26.644 152.691,25.585 154.124,26.611 C154.907,27.594 156.946,28.619 154.965,29.584 C153.655,30.071 153.215,31.855 151.559,31.316 C150.587,30.454 148.025,31.668 149.219,32.75 C150.425,32.819 151.662,32.875 152.829,32.809 C153.759,33.751 154.095,35.293 155.75,35.378 C156.5,36 158.709,36.226 157.657,34.73 C157.196,34.024 156.709,33.534 157.777,34.2 C159.051,35.352 161.402,33.801 160.563,32.219 C160.034,31.479 158.282,30.126 160.261,30.428 C161.466,30.29 161.93,33.351 163.416,31.653 C164.896,31.039 165.694,29.076 163.849,28.314 C162.942,27.938 160.994,27.52 162.611,26.658 C163.193,25.27 161.507,24.421 160.421,24.092 C159.407,23.863 157.938,23.127 157.404,22.595 C159,22.094 156.656,21.304 155.931,21.396 C155.758,21.365 155.583,21.337 155.406,21.344z M136,26 C135.164,26.038 132.907,26.472 133.421,27.39 C134.371,27.619 137.191,28.128 136.763,26.649 C136.52,26.42 136.195,26.279 136,26z M200.938,30.063 C199.882,30.01 198.49,31.929 200.4,31.32 C201.757,31.067 199.734,32.425 200.944,32.7 C200.272,33.946 203.292,33.617 204.239,33.874 C205.467,33.212 206.816,32.831 208.148,32.438 C210.023,31.968 208.529,29.751 207.202,30.128 C205.689,30.649 203.784,29.944 202.594,30.906 C202.23,30.616 201.801,29.819 200.938,30.063z M242.906,31.281 C243.807,31.227 245.757,31.327 244.266,32.415 C242.839,33.396 240.53,34.744 242.149,36.675 C242.266,38.683 245.047,38.525 246.441,37.949 C247.359,37.771 249.494,37.207 249.563,38.063 C248.388,39.447 246.605,37.885 245.158,38.739 C243.428,39.076 242.844,40.957 242.297,42.4 C242.546,43.659 241.498,45.704 240.057,44.835 C239.042,44.566 237.868,45.157 236.851,45.465 C235.934,45.939 235.035,45.944 234.462,45.019 C233.73,44.665 232.423,45.826 233.422,44.639 C233.786,43.962 233.475,42.85 234.112,44 C235.448,45.052 235.894,42.959 237.186,43.2 C238.034,41.989 237.277,39.846 239.172,39.473 C240.505,38.506 239.492,37.523 238.47,36.91 C237.433,35.016 239.621,34.265 240.902,33.536 C242.372,33.092 241.583,31.753 242.906,31.281z M216.688,39.719 C215.673,39.918 214.479,41.176 214.62,42.152 C215.388,42.804 214.292,43.725 215.26,44.252 C215.878,45.123 217.111,44.483 217.322,45.622 C218.41,47.163 214.778,46.553 216.102,47.981 C215.555,48.29 214.807,49 215.974,49.163 C216.931,49.079 216.904,49.39 216.018,49.649 C215.237,49.844 213.835,51.606 215.583,51.148 C216.97,50.456 218.511,50.557 220.009,50.397 C221.13,50.382 222.757,49.835 221.419,48.969 C222.59,48.55 222.516,47.036 221.148,47.013 C220.553,45.448 219.345,44.275 218.559,42.808 C218.947,42.204 219.833,41.474 218.714,40.91 C217.904,40.943 216.691,40.985 218.011,40.324 C218.41,39.643 217,39.814 216.688,39.719z M212.938,44.156 C211.903,44.276 211.869,45.725 210.584,45.35 C209.312,45.962 211.644,47.462 209.931,47.774 C209.058,49.027 211.183,49.924 211.988,48.767 C213.342,48.553 214.561,47.921 214.406,46.313 C216.014,45.542 214.679,43.734 213.233,44.157 L 212.938,44.156 L 212.938,44.156z M385.906,50.344 C384.952,51.668 386.931,50.737 385.906,50.344z M385.938,51.656 C385.023,52.338 386.818,52.255 385.938,51.656z M385.656,53.906 C385.3,54.546 386.329,54.265 385.656,53.906z M385.438,55.219 C384.995,55.847 386.195,55.355 385.438,55.219z M384.281,56.5 C383.485,57.272 385.239,56.816 384.281,56.5z M375.719,57.344 C375.486,58.202 377.784,60.109 376.064,60.196 C375.494,61.277 376.573,62.526 377.284,62.925 C378.526,62.929 376.995,60.938 378.497,61.727 C379.32,62.224 380.478,62.657 380.535,61.313 C381.113,60.975 382.477,60.974 381.526,59.945 C381.013,58.424 379.519,59.37 378.443,58.451 C377.559,58.037 376.686,57.509 375.719,57.344z M382.688,57.531 C381.85,58.203 383.233,58.607 382.837,57.584 L 382.688,57.531 L 382.688,57.531z M381.688,58.719 C381.048,59.347 382.722,58.988 381.688,58.719 L 381.688,58.719z M230.313,60.938 C228.93,61.142 229.741,62.431 229.981,63.044 C228.568,63.462 229.368,65.31 229.469,66.375 C231.811,66.563 230.632,63.654 230.498,62.504 C230.587,62.128 231.068,60.848 230.313,60.938z M378.375,62.813 C376.464,63.744 379.049,65.895 378.451,67.459 C378.158,68.27 377.345,69.227 376.65,68.632 C375.819,69.345 376.661,71.078 375.124,70.61 C373.334,70.429 371.648,71.531 371.25,73.313 C370.292,73.898 370.4,75.146 371.527,75.358 C371.39,76.807 373.62,78.063 373.634,76.068 C374.073,74.597 373.033,73.717 371.75,73.313 C373.432,74.073 375.434,70.941 376.497,73.326 C377.222,74.717 378.353,73.094 378.532,72.403 C379.397,72.918 379.98,71.96 380.719,71.835 C380.718,70.613 381.764,72.727 381.892,71.147 C381.908,69.495 380.958,67.994 380.974,66.408 C380.625,64.934 379.804,63.469 378.375,62.813z M258.875,70.969 C258.198,71.185 256.041,71.75 257.348,72.523 C257.893,72.936 260.344,70.839 258.875,70.969z M247.219,71.063 C246.392,71.769 249.387,72.055 249.768,71.605 C249.053,71.263 248.046,71.162 247.219,71.063z M375.063,72.656 C373.667,72.579 372.667,74.715 374.563,74.719 C375.49,74.229 377.16,73.073 375.063,72.656z M363.969,85.25 C362.402,85.973 362.37,88.971 363.993,89.719 C364.914,88.824 364.87,86.948 364.908,85.697 C364.754,85.329 364.324,85.244 363.969,85.25z M121,87.969 C119.606,88.163 117.712,88.489 117.246,90.027 C118.377,90.596 120.078,88.429 121.406,89.813 C123.135,89.789 124.405,90.955 125.673,91.829 C125.322,93.305 126.643,92.772 127.488,92.842 C128.403,94.121 131.073,92.5 128.933,91.798 C127.709,91.188 126.5,90.55 125.546,89.539 C124.108,88.921 122.63,87.947 121,87.969z M351.688,92.469 C349.387,92.322 350.344,96.076 352.221,94.858 C353.03,94.152 353.502,92.059 351.688,92.469z M130.938,92.656 C129.63,92.901 132.281,94.449 130.551,94.354 C129.652,94.082 128.483,95.2 129.976,95.275 C131.578,95.789 133.182,95.489 134.733,95 C135.377,94.907 136.896,95.332 136.162,94.1 C134.694,93.171 133.085,92.668 131.344,92.719 L 131.141,92.658 L 130.938,92.656 L 130.938,92.656z M138.469,94.469 C136.374,94.962 139.483,96.511 139.498,94.915 C139.319,94.432 138.849,94.576 138.469,94.469z M365.25,94.5 C363.722,94.901 365.271,97.153 364.256,98.204 C363.876,99.806 365.414,100.778 366.478,101.175 C367.737,101.095 369.083,102.753 370.246,102.395 C370.245,100.524 368.314,100.408 367.044,100.142 C366.12,98.495 368.276,97.051 366.988,95.428 C366.926,94.426 365.944,94.781 365.25,94.5z M365.438,101.313 C364.576,102.322 367.359,104.576 366.985,102.454 C366.78,101.801 366.124,101.311 365.438,101.313z M368.906,102.375 C368.366,103.006 370.403,104.636 370.014,103.377 C369.425,103.307 369.41,102.444 368.906,102.375z M370.375,102.875 C369.527,103.421 371.445,104.02 370.594,104.625 C370.256,105.564 372.159,107.77 371.915,105.8 C371.936,105.176 370.616,104.322 371.91,104.988 C372.753,104.314 371.538,102.353 370.375,102.875z M368.031,104 C367.215,104.676 368.167,107.032 368.875,105.344 C369.692,104.702 368.558,104.181 368.031,104z M370.094,104.656 C368.829,104.82 367.869,107.397 369.563,107.469 C369.951,106.783 370.986,105.226 370.094,104.656z M364.781,104.875 C364.85,106.2 362.167,107.641 362.622,108.601 C363.269,107.405 365.749,106.256 364.781,104.875 L 364.781,104.875z M372.438,106.844 C371.471,107.217 371.283,109.471 369.94,108.243 C368.957,108.234 367.147,110.756 368.878,110.593 C369.538,109.531 370.871,110.202 370.744,111.354 C371.048,112.433 373.356,113.523 373.019,111.566 C372.566,110.39 374.253,111.11 373.804,109.797 C373.554,108.913 373.435,107.159 372.438,106.844z M362.281,110.5 C360.92,111.194 360.638,113.254 358.958,113.697 C358,114.855 357.303,116.259 355.623,116.388 C355.168,117.281 354.983,118.398 353.726,117.626 C351.86,117.761 352.646,120.254 352.792,121.543 C353.789,122.394 353.495,124.056 354.483,124.839 C355.6,124.677 356.42,126.188 357.428,124.964 C357.982,125.009 358.52,125.442 359.078,125.436 C359.295,126.931 360.848,125.762 361.51,125.479 C361.542,124.341 361.961,123.323 362.064,122.215 C363.964,121.825 362.631,119.083 364.781,119.219 C364.265,117.877 363.048,116.242 363.554,114.788 C364.123,114.63 364.621,114.246 364.332,113.706 C366.323,113.022 363.776,112.1 363.093,111.573 C362.763,111.261 362.684,110.726 362.281,110.5z M336.281,112.469 C334.482,112.9 336.642,114.638 337.298,115.278 C338.23,116.187 338.629,117.384 339.743,117.983 C340.049,119.579 341.02,120.774 341.882,122.1 C342.262,123.233 342.975,124.152 343.787,125.007 C344.528,126.249 345.736,127.067 346.614,128.194 C347.3,129.133 349.181,128.45 348.779,127.144 C349.051,125.478 349.197,123.576 347.382,122.775 C347.39,121.972 346.705,121.357 346.258,121.178 C346.786,119.368 344.526,118.692 343.603,117.605 C341.82,116.893 340.702,115.1 339.239,113.816 C338.709,112.652 337.289,112.817 336.281,112.469z M376.625,116.719 C375.651,117.166 376.626,118.389 376.844,117.125 C376.873,117 376.87,116.603 376.625,116.719z M375.813,117.656 C374.789,117.947 375.091,121.203 376.291,119.548 C377.467,119.3 377.168,117.529 376.143,118.33 C376.056,118.11 376.119,117.717 375.813,117.656z M372.031,117.781 C371.007,119.369 369.023,118.633 367.415,118.402 C365.449,119.18 365.412,121.372 365.108,123.135 C364.397,124.017 364.237,125.211 365.312,125.835 C365.416,126.657 364.834,129.304 366.354,128.058 C366.985,126.936 366.714,125.544 366.759,124.465 C367.53,125.116 367.279,128.246 368.991,126.872 C368.336,127.729 370.017,128.545 369.653,127.186 C370.058,125.826 368.594,124.522 368.503,123.139 C369,122.651 371.36,121.769 369.903,121.231 C368.935,121.649 367.988,120.966 367.344,121.938 C365.623,120.862 367.339,119.508 368.743,119.985 C369.908,120.162 371.387,120.485 372.114,119.243 C372.367,118.798 372.925,117.935 372.031,117.781z M379.031,120.5 C378.843,121.318 379.933,120.587 379.031,120.5z M375.656,120.719 C374.064,120.826 375.846,122.764 376.142,121.288 C375.943,121.123 375.951,120.777 375.656,120.719z M381.531,120.875 C380.718,121.15 379.462,121.389 379.012,121.91 C379.623,122.649 380.739,122.783 381.362,123.562 C382,123.616 382.959,123.6 381.8,123.945 C379.996,123.87 381.183,125.789 381.897,126.403 C382.6,126.512 382.729,125.142 383.529,126.055 C384.592,127.015 386.154,127.026 387.326,127.833 C388.354,128.822 388.737,130.45 387.46,131.397 C387.008,133.039 389.063,132 389.772,131.795 C390.878,132.991 393.066,134.429 394.37,132.633 C394.786,130.625 397.434,131.17 397.938,132.781 C398.429,134.032 399.611,135.061 401.019,134.727 C401.612,135.036 403.5,135.964 403.071,134.592 C402.365,133.985 401.783,133.435 401.344,132.656 C400.229,132.911 400.087,131 399.238,130.452 C399.342,129.913 400.855,129.467 399.688,128.719 C398.737,128.079 397.651,128.2 397.576,126.961 C396.409,125.682 394.97,124.68 393.281,124.25 C391.826,123.638 390.303,123.241 388.838,122.643 C387.522,121.809 386.321,123.135 385.385,123.951 C384.535,125.756 383.538,122.838 383.57,121.958 C383.018,121.42 382.397,120.789 381.531,120.875z M375.531,122.219 C374.687,122.738 376.783,123.145 375.805,122.312 L 375.531,122.219 L 375.531,122.219z M385.531,122.531 C384.741,123.265 387.506,123.071 386.018,122.576 C385.841,122.678 385.707,122.471 385.531,122.531z M378.344,122.688 C377.296,123.73 379.536,123.068 378.344,122.688z M371.875,122.719 C371.467,123.466 373.373,123.471 373.69,123.983 C374.545,121.948 372.765,123.337 371.875,122.719z M376.531,124.281 C375.157,124.724 377.028,125.541 377.735,125.241 C378.328,125.735 379.957,125.82 378.961,124.744 C378.226,124.353 377.342,124.348 376.531,124.281z M404.031,124.313 C404.058,125.148 406.522,125.508 406.156,127.031 C407.26,126.4 405.565,124.851 404.702,124.484 C404.49,124.389 404.263,124.329 404.031,124.313z M373.969,124.625 C372.255,126.052 376.785,126.366 375.313,124.769 C374.845,124.888 374.426,124.55 373.969,124.625z M404.969,126.125 C404.374,126.805 403.541,128.509 401.993,128.014 C401.167,127.756 399.968,128.32 401.139,129.01 C402.765,129.704 404.614,129.007 405.408,127.422 C405.748,126.99 405.63,126.14 404.969,126.125z M408.406,127.5 C407.734,128.397 409.952,130.951 409.929,129.2 C409.404,128.649 408.923,128.059 408.406,127.5z M383.719,128.156 C382.744,128.256 383.031,130.658 383.905,129.262 C384.083,128.929 384.17,128.326 383.719,128.156z M349.156,128.531 C347.86,128.984 348.134,130.459 349.441,130.554 C350.779,131.475 352.524,131.034 353.912,131.817 C355.3,132.581 356.861,132.219 358.337,132.382 C359.236,132.948 361.704,131.958 359.776,131.332 C359.186,131.472 357.841,130.488 357.848,130.673 C359.321,129.517 356.717,129.6 355.941,129.645 C355.188,129.339 354.267,128.991 353.796,129.704 C352.112,129.809 350.853,128.569 349.156,128.531 L 349.156,128.531z M410.688,129.625 C409.949,130.308 412.429,130.633 411,129.75 L 410.832,129.654 L 410.688,129.625 L 410.688,129.625z M380.063,130.375 C379.281,130.414 379.338,132.097 379.981,130.919 C380.084,130.782 380.208,130.53 380.063,130.375z M413.031,130.875 C412.3,131.403 415.475,132.686 414.008,131.363 C413.706,131.157 413.373,131 413.031,130.875z M410.563,131.25 C410.014,131.908 411.36,132 410.563,131.25z M411.563,131.531 C411.125,132.237 413.426,132.788 412.127,131.734 C411.973,131.594 411.763,131.546 411.563,131.531z M361.031,131.594 C360.32,132.322 360.937,133.34 361.698,132.642 C361.969,133.779 363.37,133.045 363.852,132.65 C365.296,133.273 365.019,131.106 363.674,131.715 C362.663,132.165 362,132.143 361.196,131.57 L 361.031,131.594 L 361.031,131.594z M371.219,131.75 C370.396,132.351 372.492,131.971 371.219,131.75 L 371.219,131.75z M373.25,131.75 C371.979,131.741 371.416,133.247 370.123,133.307 C368.96,134.122 370.105,135.536 371.055,134.345 C371.783,133.149 374.178,133.325 374.323,131.982 C374.024,131.746 373.609,131.769 373.25,131.75z M366.188,131.781 C365.056,131.724 364.985,133.185 366.259,132.802 C366.941,132.877 369.453,132.96 368.096,131.957 C367.459,131.885 366.82,131.882 366.188,131.781z M370,131.906 C368.835,132.518 371.159,132.348 370,131.906z M368.781,131.969 C368.318,132.857 369.894,132.319 368.781,131.969z M415.469,132 C414.67,132.596 416.665,134.66 415.942,132.873 C415.795,132.576 415.602,132.304 415.469,132z M414.719,132.938 C413.031,133.303 415.481,135.384 415.349,133.671 C415.275,133.366 415.155,132.861 414.719,132.938z M365.094,133.219 C363.306,133.545 365.615,134.498 366.316,134.67 C367.563,134.128 365.766,133.058 365.094,133.219z M416.25,134.688 C415.321,135.513 417.797,135.7 416.625,134.813 L 416.415,134.7 L 416.25,134.688 L 416.25,134.688z M392.781,135.156 C391.894,136.072 391.586,137.71 391.102,138.967 C390.741,140.091 390.619,141.284 390.042,142.329 C390.032,143.767 388.595,145.45 387.469,143.688 C386.312,142.826 384.293,141.711 384.182,140.45 C384.325,139.237 386.878,137.774 385.138,136.9 C383.572,137.181 381.915,136.439 380.441,135.869 C379.157,135.589 381.212,137.806 379.493,137.196 C377.716,136.978 376.941,139.152 376.078,140.305 C376.94,141.3 375.257,140.941 374.878,140.586 C374.22,138.77 372.011,139.541 371.135,140.639 C371.066,141.511 369.198,141.265 369.906,142.438 C368.719,142.242 368.987,143.603 368.696,144.026 C368.1,142.308 366.525,143.926 366.779,145.195 C365.828,146.602 364.592,148.21 362.625,147.906 C361.118,148.793 359.281,148.785 357.874,149.906 C357.145,150.553 356.266,150.956 355.625,151.313 C355.47,153.093 354.049,154.737 354.855,156.45 C353.467,155.275 353.844,158.084 354.271,158.775 C354.887,160.532 354.366,162.405 354.763,164.2 C355.104,165.842 352.763,166.777 353.096,168.161 C353.77,169.279 355.25,170.034 356.438,169.125 C357.683,168.128 359.113,167.422 360.753,167.729 C362.212,168.118 363.289,167.335 364.314,166.534 C365.634,166.218 366.818,165.411 368.223,165.445 C369.986,165.13 371.691,164.179 373.531,164.563 C374.93,165.246 376.648,166.072 376.164,168.007 C376.822,169.949 378.328,167.429 379.441,167.113 C380.244,166.621 378.805,168.255 378.44,168.445 C377.162,169.517 378.859,169.61 379.406,169.25 C379.205,170.176 380.562,170.9 379.838,172.113 C379.527,173.483 381.109,173.704 382.051,174.043 C383.352,175.264 384.798,172.485 385.656,174.156 C386.93,175.448 388.166,173.131 389.553,173.127 C391.395,173.284 392.266,171.546 393.055,170.188 C394.285,169.406 394.584,167.835 395.846,167.061 C397.152,165.836 398.987,164.835 399.531,163.063 C400.562,161.342 401.646,159.534 401.53,157.501 C401.381,156.779 402.597,155.455 401.96,155.187 C401.176,155.938 401.12,153.402 400.268,153.104 C400.178,152.125 399.779,151.338 398.92,150.967 C398.757,149.363 398.161,147.644 396.588,146.867 C395.419,145.976 396.324,144.072 395.76,142.8 C395.864,141.506 395.3,139.962 393.907,139.971 C394.012,138.387 393.542,136.831 393.057,135.343 L 392.938,135.212 L 392.781,135.156 L 392.781,135.156z M378.625,136.094 C377.041,136.517 379.278,137.477 379.089,136.194 L 378.893,136.104 L 378.625,136.094 L 378.625,136.094z M278.906,137.219 C278.176,138.261 277.332,139.481 276.64,140.687 C275.957,142.415 273.734,142.129 272.692,143.277 C271.5,144.756 272.504,146.543 272.207,148.206 C271.972,149.55 270.288,150.602 270.944,152.073 C271.048,153.544 271.047,155.491 272.813,155.969 C274.684,156.363 276.147,154.762 276.411,152.991 C277.135,150.347 278.482,147.912 279.126,145.249 C279.416,144.316 279.45,143.042 279.873,142.344 C280.951,141.313 279.849,139.27 279.5,137.969 C279.427,137.662 279.255,137.282 278.906,137.219z M385.344,139.563 C384.221,140.242 386.154,140.568 385.344,139.563z M421.563,140.75 C420.446,141.452 423.06,144.404 422.224,142.412 C421.642,141.996 422.011,141.1 421.563,140.75z M423.219,141.438 C422.203,141.688 423.322,143.766 423.395,142.116 C423.373,141.939 423.504,141.476 423.219,141.438z M422.969,143.469 C422.471,144.209 423.923,143.967 422.969,143.469z M422.844,144.813 C422.027,145.584 423.7,145.442 422.844,144.813z M423.188,146.25 C422.748,146.879 424.021,146.623 423.188,146.25z M423.344,147.375 C422.67,147.995 424.23,147.783 423.344,147.375z M423.563,148.281 C423.38,148.953 424.361,148.335 423.563,148.281z M416.813,148.406 C416.863,149.568 418.11,150.717 419.114,151.392 C420.296,151.116 418.298,149.638 417.813,149.125 C417.476,148.894 417.228,148.507 416.813,148.406z M419.875,168.156 C419.042,169.179 419.643,170.777 419.469,172.031 C419.496,173.7 417.667,174.212 416.839,175.173 C417.472,175.909 417.639,176.589 416.734,177.28 C416.088,178.985 418.956,177.206 419.579,176.598 C420.411,174.893 422.275,174.704 423.51,173.382 C424.418,172.086 422.677,172.561 422.072,172.765 C420.988,172.554 422.253,170.918 420.781,171.188 C421.652,170.087 421.142,168.571 419.875,168.156z M377.906,169.969 C376.246,170.423 379.045,170.551 378.2,169.978 L 377.906,169.969 L 377.906,169.969z M383.219,176.656 C381.976,177.308 381.747,179.295 381.914,180.559 C382.788,181.922 384.576,180.247 385.368,179.469 C386.012,178.813 387.85,176.585 385.827,176.914 C384.887,177.04 384.1,177.055 383.219,176.656z M414.25,176.656 C412.875,177.408 411.635,178.426 410.381,179.459 C409.23,180.511 407.627,180.606 406.3,181.304 C405.145,182.135 403.844,182.666 402.665,183.469 C401.069,184.467 402.908,185.031 403.99,185.048 C405.381,185 406.641,184.12 407.748,183.318 C408.837,181.86 410.643,181.91 412.1,181.133 C413.227,179.965 414.907,179.334 415.714,177.878 C416.292,176.376 414.656,177.623 414.25,176.656 L 414.25,176.656z M175.094,202.125 C175.342,202.749 176.368,201.909 175.094,202.125z M176.375,202.25 C176.425,202.604 176.733,202.304 176.375,202.25z M173.25,203.188 C172.178,203.027 172.403,204.078 172.825,203.442 C172.969,203.672 173.779,203.259 173.25,203.188z M172.344,203.625 C171.583,203.72 172.986,203.895 172.344,203.625z M171.813,203.75 C171.492,204.096 172.467,203.815 171.813,203.75z M170.688,203.906 C170.067,204.431 172.733,204.085 170.995,203.992 L 170.688,203.906 L 170.688,203.906z M171.781,203.906 C171.188,204.035 172.135,204.098 171.781,203.906z M170.344,204.219 C169.936,204.678 170.91,204.102 170.344,204.219z M169.531,204.438 C168.986,204.616 169.475,204.994 169.531,204.438z M171.219,204.438 C170.813,204.489 171.48,204.734 171.219,204.438z M175.406,204.563 C174.758,204.85 176.248,204.806 175.406,204.563z M176.219,204.75 C175.18,204.697 175.473,205.366 176.344,205.017 C177.247,205.234 176.652,204.721 176.219,204.75z M169.969,204.875 C169.447,205.005 170.389,205.035 169.969,204.875 L 169.969,204.875z M174.563,204.875 C173.529,205.222 172.556,205.816 171.735,206.065 C171.864,206.52 171.211,206.292 171.331,206.589 C170.762,206.853 170.654,206.624 170.751,206.956 C169.878,206.71 170.835,207.588 169.651,207.123 C169.263,207.525 170.418,207.944 169.594,207.938 C169.149,208.012 170.096,208.584 169.281,208.25 C168.871,208.454 168.169,209.047 168.456,209.538 C167.379,209.23 167.978,210.494 168.5,210.313 C169.189,209.892 168.742,210.639 168.855,210.885 C169.768,211.108 168.724,211.167 169.563,211.75 C168.505,211.69 171,212.175 169.49,212.425 C168.465,212.251 168.36,212.441 169.125,213.031 C170.118,213.553 171.014,214.576 171.936,215.205 C173.845,216.457 170.68,217.106 169.624,217 C168.422,217.22 167.362,217.433 166.173,217.528 C165.155,217.785 165.054,216.854 163.844,217.397 C163.183,217.149 161.803,216.562 161.447,216.801 C162.213,217.231 160.695,216.941 161.556,217.491 C160.308,217.769 158.852,217.345 157.573,217.2 C156.779,216.34 156,217.154 154.857,216.829 C154.411,216.767 153.706,215.9 153.319,216.251 C154.584,217.067 151.886,216.989 151.392,216.848 C149.77,216.853 148.202,217.009 146.569,216.817 C145.595,216.285 143.544,216.911 142.307,216.565 C141.604,215.852 140.796,216.605 142,216.872 C143.129,217.191 145.203,216.826 145.787,217.387 C144.978,217.77 142.989,216.961 142.959,217.451 C144.136,217.764 145.204,218.259 146.375,218.406 C146.093,218.586 147.018,218.62 146.25,218.625 C146.933,218.653 148.297,219.195 146.857,219.138 C145.637,219.208 144.438,218.662 143.182,218.889 C141.689,219.418 140.156,218.835 138.674,219.156 C137.674,219.111 138.624,218.164 137.313,218 C136.481,217.736 136.017,218 136.593,218.292 C138.095,218.851 134.812,218.741 135.344,218.188 C134.743,218.263 133.711,217.11 133.406,217.906 C134.624,218.356 132,218.367 131.406,218.188 C130.607,217.883 130.708,218.733 129.622,218.451 C127.335,218.675 125.035,218.287 122.75,218.469 C121.229,218.736 119.653,218.467 118.135,218.528 C117.022,217.96 115.979,218.549 115.436,218.87 C114.197,218.578 113.822,219.798 112.471,219.261 C112.446,219.539 111.238,219.311 111.375,219.625 C110.786,219.65 109.456,219.919 110.788,220.141 C112.496,220.447 109.798,220.226 109.206,220 C108.452,219.796 107.732,220.485 108.956,220.404 C110.026,220.221 112.205,220.506 112.158,220.798 C113.115,220.929 112.789,221.022 112.031,220.906 C112.619,221.012 113.613,221.68 112.342,221.294 C111.698,221.137 111.885,221.467 111,221 C109.555,220.809 110.955,221.507 111.625,221.375 C111.126,221.458 111.367,221.651 110.656,221.531 C111.722,222.118 108.848,221.225 108.194,221.294 C107.492,221.614 105.532,220.695 104.25,221.063 C105.303,221.634 101.602,220.57 103.667,221.331 C104.714,222.429 106.384,222.216 107.75,222.063 C108.57,221.939 109.314,222.642 108.022,222.548 C107.649,222.808 109.647,222.949 110.205,223.084 C113.057,223.319 115.915,223.615 118.732,224.116 C119.693,224.22 120.044,224.581 119.168,225.127 C118.6,225.507 116.541,225.024 115.384,225.008 C114.619,224.973 112.921,224.613 112.726,225.171 C114.312,225.269 115.39,225.429 116.7,225.94 C118.084,226.012 119.167,226.285 120.142,227.028 C121.274,227.747 122.705,227.637 123.995,227.839 C126.789,227.977 129.583,228.134 132.382,228.106 C134.741,228.425 131.144,228.532 130.3,228.373 C128.918,228.4 127.489,228.092 126.132,228.351 C125.186,228.777 123.131,228.217 121.75,228.5 C118.756,228.601 115.766,228.23 112.781,228.125 C112.085,228.091 110.413,227.807 110.344,227.973 C113.544,229.09 116.775,230.165 120.076,230.927 C148.311,231.009 176.546,231.044 204.781,231.108 C255.643,231.205 306.504,231.326 357.366,231.407 C359.016,231.607 360.571,231.114 362.126,230.64 C364.483,229.974 366.814,229.219 369.125,228.406 C367.411,228.365 365.698,228.239 363.986,228.317 C363.218,228.205 362.161,228.14 362.25,228.031 C361.007,228 359.351,227.786 357.813,227.719 C359.062,227.553 356.481,227.302 355.829,227.455 C353.897,227.55 357.982,227.197 356.142,227.097 C354.768,227.143 357.146,226.909 355.674,226.897 C355.564,226.825 355.352,226.694 355.256,226.602 C354.604,226.547 354.491,226.631 354.971,226.335 C354.556,225.944 354.409,225.972 353.563,225.844 C354.196,225.849 356.34,225.578 354.616,225.59 C353.812,225.516 355.784,225.32 354.656,225.188 C355.265,225.261 356.202,224.948 355.038,225.081 C354.909,225.05 356.921,224.813 355.327,224.855 C354.62,225.1 353.462,224.718 354.794,224.663 C355.506,224.757 357.536,224.3 355.79,224.463 C355.389,224.287 358.287,224.154 357.969,223.625 C359.366,223.398 360.732,223.412 362.117,223.11 C362.963,222.818 364.724,223.279 364.688,222.938 C363.633,223.202 364.501,222.368 364.382,222.54 C363.536,222.851 364.273,222.384 363.344,222.594 C363.928,222.604 365,221.914 363.75,222.125 C364.283,222.158 365.175,221.275 364.156,221.344 C365.609,221.21 365.512,220.468 366.843,220.154 C367.684,219.206 368.958,219.3 370.031,218.906 C371.076,219.084 371.742,218.049 372.781,218.156 C372.514,217.868 374.344,217.833 374.906,217.625 C375.629,217.691 376.437,217.633 377.451,217.104 C377.923,216.99 380.112,216.186 379.063,216.313 C379.663,215.963 381.566,215.72 381.174,215.174 C380.446,215.938 379.796,214.687 379.656,214.438 C378.538,214.62 379.872,214.155 378.784,214.394 C377.99,214.041 376.839,214.406 376.219,214.156 C376.19,213.525 375.407,214.331 375.42,213.844 C374.396,214.048 374.944,213.125 374.111,212.876 C373.598,212.809 373.311,212.48 373.2,212.411 C372.677,212.889 370.229,212.563 371.438,212 C371.853,211.557 370.785,211.59 370.627,212.149 C369.778,212.415 368.827,212.021 367.906,212.281 C368.618,211.855 368.754,211.578 367.816,211.711 C367.434,211.522 365.974,211.622 366.969,211.094 C366.524,210.636 364.867,211.863 365.64,210.972 C365.393,210.531 364.025,210.825 365.19,210.438 C366.325,209.585 364.252,210.515 364.4,209.961 C363.572,209.904 362.298,209.724 361.076,209.556 C359.674,209.274 358.184,209.207 356.938,208.75 C358.097,208.624 358.68,206.744 357.227,207.72 C356.619,208.397 356.437,209.272 355.241,208.865 C353.843,209.164 352.298,208.636 351.049,209.515 C350.523,210.434 347.937,209.986 348.92,209.255 C347.902,208.668 346.91,210.025 346.156,209.349 C344.958,209.983 344.663,208.941 343.32,209.597 C341.767,209.649 339.78,210.409 338.765,209.124 C337.843,209.387 337.466,209.28 337.191,208.461 C335.644,208.111 334.217,208.98 332.843,209.526 C331.554,209.986 331.425,208.977 330.094,209.156 C328.629,208.832 327.135,208.296 325.629,208.71 C324.562,208.47 323.154,210.233 322.5,209.344 C321.168,209.404 320.152,209.477 318.596,209.336 C316.916,209.538 315.197,209.107 313.509,209.556 C312.885,209.815 313.658,207.972 312.761,209.055 C311.818,210.109 310.122,210.052 308.813,210 C307.632,210.121 306.707,210.01 305.719,210.469 C306.52,210.703 304.493,210.918 303.983,211 C302.194,210.977 301.77,212.37 300.281,212.531 C299.034,212.947 298.041,213.037 296.819,213.265 C295.741,213.504 295.425,214.262 294.311,214.53 C293.538,215.659 292.076,216.042 290.719,216.188 C289.675,216.111 289.896,215.693 290.563,215.281 C290.462,214.928 292.976,214.583 292.367,213.812 C292.169,213.902 291.237,214.762 291.688,213.906 C290.56,214.176 292.109,212.802 292.562,213.431 C293.196,213.17 292.864,212.909 292.907,212.7 C293.194,212.596 294.166,212.765 293.5,212.313 C294.175,212.19 293.623,211.792 294.504,211.695 C294.428,211.037 294.8,210.41 293.721,210.89 C292.1,210.828 290.483,210.53 288.874,210.468 C287.797,210.593 285.666,210.314 285.094,210.125 C284.488,209.784 282.33,209.849 283.785,209.232 C282.453,208.591 281.025,208.086 279.492,208.469 C278.4,208.593 276.628,209.395 277.362,209.987 C276.208,210.054 276.139,209.287 275.156,210 C276.882,210.298 273.719,211.017 274.124,210.341 C274.563,210.14 272.97,209.797 273.156,210.531 C271.56,210.767 269.966,211.162 268.375,211.563 C267.272,211.664 266.686,212.345 266.181,212.961 C265.346,213.547 265.45,213.058 265.306,212.86 C265.274,213.639 264.171,212.826 264.466,212.833 C265.644,212.225 263.957,212.811 263.536,212.914 C262.834,212.615 264.165,212.653 263.156,212.438 C262.459,212.174 261.339,210.781 260.938,212.125 C259.843,212.849 258.541,213.244 257.213,213.197 C255.319,213.648 253.365,213.722 251.436,213.948 C249.959,213.841 248.488,213.648 247.033,213.359 C245.839,213.364 244.661,213.927 243.474,213.533 C241.984,213.658 240.663,214.673 239.226,213.584 C238.536,213.302 238.247,213.339 238.551,213.767 C237.875,213.819 237.242,213.216 236.58,213.992 C234.776,214.059 232.929,214.226 231.207,214.8 C230.249,215.559 230.013,214.583 228.957,214.947 C228.205,214.288 226.168,215.397 225.418,214.675 C227.071,213.593 223.125,214.436 224.375,215.281 C223.213,215.852 222.143,213.65 221.713,214.516 C222.122,214.659 220.564,215.839 220.594,214.781 C218.907,214.944 222.127,215.647 220.461,216.156 C219.475,216.618 218.019,216.331 218.936,216.882 C218.172,217.089 217.096,216.826 216.719,217.688 C217.416,217.456 217.382,217.7 216.719,217.844 C217.38,218.244 219.482,217.391 219.044,217.923 C218.186,218.219 216.012,218.737 216.312,219.658 C216.322,220.03 214.588,219.616 213.938,220.01 C212.512,220.023 211.047,220.044 209.656,220.406 C208.521,220.451 206.381,221.309 204.858,221.523 C204.807,221.56 201.616,222.815 203.656,223.281 C205.015,223.535 206.389,223.781 207.761,223.422 C208.377,223.341 211.209,222.949 209.442,223.424 C208.843,223.541 207.646,223.977 208.922,223.97 C209.86,223.825 210.657,224.657 209.266,224.609 C207.589,224.674 205.905,224.911 204.222,225.066 C202.703,225.349 200.98,225.049 199.653,225.882 C196.727,225.803 193.78,225.81 190.88,226.238 C189.794,226.793 188.776,226.952 187.844,226.344 C184.65,225.961 181.468,225.477 178.269,225.148 C176.581,224.99 174.838,224.977 173.236,224.377 C172.3,224.175 169.937,224.388 169.923,224 C170.427,224.106 172.952,224.367 171.938,223.531 C170.791,223.29 169.553,223.344 168.406,223.375 C169.46,224.194 167.253,223.014 166.647,223.224 C165.868,223.088 163.44,222.083 165.453,222.409 C166.915,222.709 168.517,223.327 169.969,222.719 C168.886,221.825 167.215,222.473 165.938,221.938 C167.587,222.156 164.776,221.559 166.285,221.674 C168.051,222.042 169.875,221.912 171.647,222.23 C172.613,222.361 173.006,221.35 171.753,221.542 C169.954,221.751 168.283,220.906 166.638,220.304 C166.749,219.2 168.727,220.617 169.716,220.584 C171.166,220.365 173.132,221.279 174.188,220.292 C175.588,220.143 177.101,219.959 178.344,219.313 C177.694,219.308 176.897,219.143 178.006,219.114 C178.629,218.835 176.627,218.958 177.94,218.807 C177.961,218.534 177.492,218.397 178.247,218.618 C179.435,219.391 178.357,218.058 179.094,217.906 C177.969,217.502 178.841,217.92 179.093,217.568 C179.1,217.097 177.671,217.22 177.892,216.958 C177.469,216.663 179.133,217.153 179.17,216.973 C179.766,216.765 178.886,216.335 178.563,216.563 C178.026,216.053 177.051,216.246 177.728,215.828 C177.984,215.464 174.805,215.591 176.88,215.411 C178.035,214.838 175.446,215.317 176.844,214.813 C177.117,214.708 176.052,213.943 175.602,214.151 C175.185,213.958 176.443,213.723 175.237,213.8 C174.28,213.531 175.659,213.368 174.588,213.113 C174.215,212.236 172.476,212.313 172.749,211.722 C173.235,211.81 171.418,211.276 172.606,211.261 C174.102,211.252 170.811,211.03 172.144,211.682 C173.098,211.833 170.4,211.815 170.969,211.313 C169.942,211.343 171.726,210.694 170.45,210.954 C170.19,210.83 170.1,210.351 169.906,209.969 C170.915,210.104 169.557,209.157 170.82,209.508 C171.281,209.426 169.968,209.03 170.813,208.781 C170.234,208.1 172.565,209.824 171.938,208.875 C170.829,208.5 172.358,208.522 172.688,208.906 C172.08,208.314 173.963,208.802 173.038,208.28 C172.949,208.441 171.107,208.736 171.776,207.806 C172.139,207.8 170.945,207.404 171.821,207.273 C172.192,206.822 173.168,206.245 173.263,206.392 C173.365,206.081 174.38,206.915 173.844,206.096 C173.626,204.675 176.642,205.775 174.563,204.875z M109.906,220.125 C111.333,220.27 108.63,219.654 109.906,220.125z M176.063,205.094 C175.349,205.421 176.761,205.301 176.063,205.094z M171.531,205.438 C171.608,205.981 171.956,205.475 171.531,205.438z M174.781,205.594 C174.422,205.856 175.909,205.595 174.781,205.594 L 174.781,205.594z M174.344,205.625 C173.372,206.387 176.423,206.555 174.984,205.902 C174.727,205.896 174.696,205.884 174.344,205.625z M170.688,205.844 C170.62,206.194 171,205.696 170.688,205.844z M170.281,205.906 C169.869,206.615 171.149,206.49 170.543,205.965 L 170.281,205.906 L 170.281,205.906z M169.531,206.156 C168.421,206.605 169.742,207.274 170.219,206.531 C169.656,206.642 169.889,206.221 169.531,206.156z M323.563,206.219 C322.273,206.885 325.153,207.314 323.906,206.344 L 323.758,206.265 L 323.563,206.219 L 323.563,206.219z M175.563,206.344 C174.761,206.64 176.157,206.536 175.563,206.344z M170,206.781 C169.292,206.869 170.261,207.237 170,206.781z M173.625,207.25 C173.292,207.552 174.272,207.206 173.625,207.25z M327.688,207.594 C327.276,208.387 328.685,207.72 327.688,207.594z M168.188,207.719 C167.482,208.268 168.694,208.286 168.188,207.719z M325.656,207.875 C324.555,207.891 324.87,208.551 325.739,208.193 C325.931,208.126 325.842,207.857 325.656,207.875z M317.344,208.25 C316.992,208.421 317.826,208.389 317.344,208.25 L 317.344,208.25z M325.25,208.406 C324.737,208.449 325.186,208.532 325.25,208.406z M167.781,208.469 C167.456,208.632 168.121,208.808 167.781,208.469 L 167.781,208.469z M324.688,208.719 C324.331,208.958 325.195,208.635 324.688,208.719z M320.813,208.75 C320.027,209.088 321.81,208.854 320.813,208.75z M324.375,208.813 L 324.25,208.875 L 324.375,208.813 L 324.375,208.813z M382.531,208.969 C382.046,209.104 382.391,209.538 382.531,208.969z M167.156,209.063 C165.8,209.661 167.205,211.147 167.49,210.06 C167.715,209.772 167.14,209.555 167.156,209.063z M167.469,209.219 C167.571,209.731 167.983,209.196 167.469,209.219z M323.188,209.375 C322.613,209.535 322.787,209.74 323.188,209.375z M382.375,209.531 C382.012,209.81 382.875,209.443 382.375,209.531z M292.5,210.188 C292.714,210.735 293.2,210.191 292.5,210.188z M168.219,210.281 C167.316,210.605 169.068,210.502 168.219,210.281z M170.719,210.313 C170.267,210.476 171.162,210.262 170.719,210.313z M382.781,210.406 C381.491,211.235 383.424,210.332 382.781,210.406z M168.625,210.563 C168.35,210.579 168.815,210.791 168.625,210.563z M175.031,211.594 C174.708,211.779 175.37,211.6 175.031,211.594z M166.156,211.719 C165.265,211.591 164.809,212.464 165.878,212.642 C166.19,213.253 167.316,213.495 166.139,213.824 C166.602,214.056 168.383,214.076 168.066,214.507 C167.667,214.5 166.033,214.35 166.284,214.6 C167.452,214.953 166.115,214.598 165.898,214.818 C166.788,215.482 164.494,214.333 165.5,215.156 C163.507,214.729 165.674,216.112 166.469,215.531 C165.572,215.095 167.131,215.67 167.375,215.125 C167.936,215.568 169.518,215.461 168.031,215.75 C168.597,215.9 169.979,215.707 168.637,216 C168,215.7 166.435,216 167.937,216.254 C168.964,216.144 171.039,216.67 171.022,215.472 C170.777,214.483 169.507,213.689 168.572,213.185 C167.77,212.644 167.069,211.862 166.156,211.719z M174.188,212.125 C173.689,212.287 175.377,213.327 174.563,212.375 L 174.393,212.226 L 174.188,212.125 L 174.188,212.125z M371.5,212.313 C371.072,212.617 372.037,212.306 371.5,212.313 L 371.5,212.313z M371.844,212.406 C371.764,212.75 372.367,212.335 371.844,212.406z M165.063,212.563 C164.28,213 166.72,212.878 165.063,212.563z M163.25,212.938 C161.412,213.233 165.108,213.612 163.25,212.938 L 163.25,212.938z M175.5,213.094 C175.351,213.304 175.764,213.148 175.5,213.094z M244.75,213.25 C244.047,213.781 246.216,213.293 244.979,213.235 L 244.75,213.25z M242.25,213.344 C241.245,213.492 243.098,213.602 242.25,213.344 L 242.25,213.344z M228.969,213.531 L 229.094,213.563 L 228.969,213.531 L 228.969,213.531z M228,213.656 C227.238,213.953 228.995,213.773 228,213.656z M176.438,213.75 C175.626,214.02 177.304,214.011 176.438,213.75z M233.625,213.75 C232.75,214.079 234.34,214.021 233.625,213.75z M225.25,213.781 C224.556,214 226.016,213.958 225.25,213.781 L 225.25,213.781z M164.469,213.906 C164.395,214.078 162.007,214.348 163.549,214.521 C164.125,214.525 166.541,214.119 164.469,213.906z M227.938,214 C226.982,214.625 229.857,214.516 228.506,214.095 L 228.209,214.028 L 227.938,214 L 227.938,214z M232.844,214 C232.535,214.25 233.145,214.08 232.844,214z M223.719,214.063 C223.284,214.135 224.153,214.136 223.719,214.063z
M176.719,214.219 C176.782,214.628 177.846,214.403 176.719,214.219z M231.438,214.438 C231.048,214.491 231.609,214.698 231.438,214.438z M143.938,215.188 C143.6,215.561 145.029,215.662 143.906,215.5 C143.056,215.577 142.64,215.203 141.436,215.481 C141.52,215.964 144.076,215.666 144.408,215.988 C145.237,216 147.428,216.342 147.171,215.825 C146.525,215.779 146.545,215.854 147.125,215.688 C146.692,215.721 145.356,215.754 146.438,215.469 C145.478,214.847 145.621,216 144.75,215.344 C145.827,216.196 144.403,215.252 143.938,215.188z M162.281,215.813 C161.316,215.969 164.165,216.339 162.772,215.843 L 162.526,215.807 L 162.281,215.813 L 162.281,215.813z M148.281,216.063 C147.303,216.457 149.284,216.105 148.281,216.063z M151.625,216.063 C150.671,216.101 153.141,217.393 151.969,216.156 L 151.805,216.08 L 151.625,216.063 L 151.625,216.063z M143.781,216.094 C142.693,216.63 146.293,216.361 144.434,216.16 C144.212,216.188 144,216.095 143.781,216.094z M149.906,216.125 C149.476,216.054 149.698,216.352 149.906,216.125z M145.781,216.188 C145.108,216.436 146.527,216.201 145.781,216.188z M149.594,216.406 C149.145,216.544 150.035,216.448 149.594,216.406z M153.125,216.438 C152.406,217.051 154.334,216.459 153.125,216.438z M165.656,216.438 C165.756,216.67 165.217,217.056 166.156,217.125 C167.213,217.566 167.338,217.315 166.781,216.594 C166.435,216.423 166.035,216.383 165.656,216.438z M140.188,216.563 C139.604,216.848 141.587,216.982 140.357,216.604 L 140.188,216.563 L 140.188,216.563z M167.531,216.813 C166.962,217.091 168.013,217.2 167.531,216.813z M121.75,216.844 C121.016,217.315 123.258,217.368 123.778,217.639 C124.369,218 126.636,218.008 124.965,217.467 C123.889,217.248 122.849,216.907 121.75,216.844z M136.531,216.844 C136.2,217.862 138.608,217.79 139.368,218.112 C140.776,217.735 137.371,217.036 136.531,216.844 L 136.531,216.844z M163.844,216.844 C162.851,217.068 164.917,217.198 163.844,216.844z M126.281,217.219 C124.689,217.135 126.864,217.763 127.319,218.102 C127.86,218.078 130.257,218.077 129.469,217.469 C128.393,217.517 127.344,217.365 126.281,217.219z M124.25,217.313 C124.166,217.506 123.597,217.21 124.25,217.313z M377.094,217.406 C376.127,217.625 376.908,217.855 377.313,217.406 L 377.094,217.406 L 377.094,217.406z M131.875,217.563 C130.108,217.781 132.809,218.259 131.875,217.563z M122.469,217.969 C121.723,218.241 124.506,218.513 122.813,217.969 L 122.638,217.962 L 122.469,217.969 L 122.469,217.969z M131.719,217.969 C131.313,218.275 132.232,217.926 131.719,217.969z M119.344,218 C118.88,218.491 121.323,218.253 119.617,218 L 119.344,218 L 119.344,218z M213.75,218 C212.928,218.377 212.834,218.387 213.75,218.594 C214.749,219.105 213.595,218.475 213.82,218.095 L 213.75,218z M118.813,218.094 C118.267,218.247 119.356,218.157 118.813,218.094z M111.75,219.281 C111.1,219.3 112.325,219.425 111.75,219.281z M109.813,219.344 C109.495,219.672 111.067,219.465 109.813,219.344 L 109.813,219.344z M109.844,220.469 C110.615,220.755 110.67,220.452 109.844,220.469z M110.125,220.469 L 110.406,220.5 L 110.125,220.469 L 110.125,220.469z M108.031,220.563 C107.988,220.892 109.071,220.426 108.031,220.563z M109.406,220.594 C108.774,220.778 110.776,220.722 109.625,220.594 L 109.406,220.594 L 109.406,220.594z M111.406,220.719 C111.032,221.017 112.478,220.745 111.406,220.719 L 111.406,220.719z M108.688,220.781 C107.417,220.911 111.178,221.214 109.319,220.834 L 109.005,220.792 L 108.688,220.781 L 108.688,220.781z M109.969,220.813 C108.786,220.943 111.232,220.965 109.969,220.813z M111.625,221.094 C111.111,221.136 112.123,221.243 111.625,221.094z M108.781,221.125 C108.588,221.439 110.442,221.214 109.011,221.13 L 108.781,221.125 L 108.781,221.125z M110.188,221.188 C109.833,221.324 111.247,221.278 110.188,221.188 L 110.188,221.188z M110.813,221.344 C110.273,221.361 111.284,221.488 110.813,221.344z M367.281,221.625 C366.434,221.713 366.1,222.265 366.172,222.271 C366.904,221.824 368.495,222.414 368.714,221.821 C368.179,221.609 367.537,222.021 367.281,221.625z M193.938,222.063 C192.626,221.851 191.342,222.898 192.038,223.848 C191.683,224.504 189.48,224.197 190.094,224.938 C191.821,225.237 193.57,224.778 195.308,224.787 C196.226,224.768 197.966,224.581 197.666,224.23 C199.202,223.768 195.813,223.413 197.281,223.375 C197.098,222.852 194.949,223.259 196.12,222.882 C197.721,222.717 195.085,221.934 194.531,222.094 L 194.233,222.071 L 193.938,222.063 L 193.938,222.063z M366,222.5 C364.29,222.765 366.622,222.807 366,222.5z M177.813,222.531 C177.069,222.485 174.201,223.266 176.078,223.773 C176.41,223.907 178.435,222.72 177.813,222.531z M364.906,222.563 C363.801,222.965 365.988,222.703 364.906,222.563z M199.25,222.656 C198.384,222.65 198.032,222.823 199.094,222.761 C199.818,222.746 201.636,222.938 201.617,222.813 C200.828,222.752 200.036,222.736 199.25,222.656z M184.313,223.781 C183.7,223.918 183.955,224.668 182.931,224.409 C182.047,224.592 180.435,224.049 180.089,224.372 C181.579,224.795 183.188,224.567 184.728,224.913 C186.048,224.973 185.075,223.641 184.313,223.781z" fill="#fff"/>
</svg>