<?xml version='1.0' encoding='UTF-8'?>
<!-- Created with Inkscape (http://www.inkscape.org/) and export_objects.py -->
<svg xmlns:cc="http://creativecommons.org/ns#" xmlns:dc="http://purl.org/dc/elements/1.1/" xmlns:inkscape="http://www.inkscape.org/namespaces/inkscape" xmlns:rdf="http://www.w3.org/1999/02/22-rdf-syntax-ns#" xmlns:sodipodi="http://sodipodi.sourceforge.net/DTD/sodipodi-0.dtd" xmlns:xlink="http://www.w3.org/1999/xlink" xmlns="http://www.w3.org/2000/svg" version="1.1" inkscape:export-ydpi="92" inkscape:export-xdpi="92" sodipodi:modified="TRUE" inkscape:output_extension="org.inkscape.output.svg.inkscape" sodipodi:docname="mmenu1.svg" inkscape:version="0.92.3 (2405546, 2018-03-11)" sodipodi:version="0.32" id="svg2" width="28.409px" height="47.855px" viewBox="0 0 28.409 47.855"><sodipodi:namedview inkscape:window-height="830" inkscape:window-width="1600" inkscape:pageshadow="2" inkscape:pageopacity="0" guidetolerance="10.0" gridtolerance="1" objecttolerance="10" borderopacity="1.0" bordercolor="#666666" pagecolor="#ffffff" id="base" showgrid="true" inkscape:grid-points="false" inkscape:zoom="1.4142136" inkscape:cx="-304.49261" inkscape:cy="-874.35018" inkscape:window-x="0" inkscape:window-y="33" inkscape:current-layer="g11894" inkscape:object-paths="true" inkscape:grid-bbox="false" inkscape:object-bbox="false" showguides="true" inkscape:guide-bbox="true" inkscape:window-maximized="1" inkscape:snap-to-guides="true" inkscape:snap-grids="true" inkscape:snap-center="true" inkscape:snap-object-midpoints="true" inkscape:snap-midpoints="false" inkscape:snap-bbox="false" inkscape:bbox-paths="true" inkscape:bbox-nodes="true" inkscape:snap-bbox-edge-midpoints="true" inkscape:snap-bbox-midpoints="true" inkscape:snap-global="true" inkscape:object-nodes="true" inkscape:snap-nodes="false" inkscape:pagecheckerboard="true">
    <sodipodi:guide orientation="horizontal" position="32.975534" id="guide5056" inkscape:locked="false"/>
    <inkscape:grid type="xygrid" id="grid5900" empspacing="5" visible="true" enabled="true" snapvisiblegridlinesonly="true"/>
  </sodipodi:namedview>
  <metadata id="metadata13">
    <rdf:RDF>
      <cc:Work rdf:about="">
        <dc:format>image/svg+xml</dc:format>
        <dc:type rdf:resource="http://purl.org/dc/dcmitype/StillImage"/>
        <dc:title/>
      </cc:Work>
    </rdf:RDF>
  </metadata>
  <g inkscape:groupmode="layer" inkscape:label="mmenu" transform="matrix(1.000000,0.000000,0.000000,1.000000,135.826870,-1406.215900)"><path inkscape:connector-curvature="0" style="fill:#cccccc;filter:url(#filter11555);fill-opacity:1" d="m -121.62087,1406.2159 c -7.862,0.089 -14.206,5.813 -14.206,12.87 0,2.254 0.649,4.371 1.785,6.214 v 0 c 0.377,0.613 2.52,3.673 3,4.22 4.94,7.059 7.376,15.35 9.313,24.551 h 0.211 c 1.938,-9.201 4.374,-17.492 9.314,-24.551 0.48,-0.547 2.622,-3.606 3.001,-4.219 l 0.001,-10e-4 c 1.136,-1.843 1.784,-3.96 1.784,-6.214 0.002,-7.057 -6.342,-12.781 -14.203,-12.87 z m 0.267,17.323 c -2.566,0 -4.645,-2.073 -4.645,-4.632 0,-2.559 2.079,-4.633 4.645,-4.633 2.564,0 4.646,2.074 4.646,4.633 0,2.559 -2.082,4.632 -4.646,4.632 z" id="path11547" inkscape:label="1"/>
  </g></svg>
