<?xml version='1.0' encoding='UTF-8'?>
<!-- Created with Inkscape (http://www.inkscape.org/) and export_objects.py -->
<svg xmlns:cc="http://creativecommons.org/ns#" xmlns:dc="http://purl.org/dc/elements/1.1/" xmlns:inkscape="http://www.inkscape.org/namespaces/inkscape" xmlns:rdf="http://www.w3.org/1999/02/22-rdf-syntax-ns#" xmlns:sodipodi="http://sodipodi.sourceforge.net/DTD/sodipodi-0.dtd" xmlns:xlink="http://www.w3.org/1999/xlink" xmlns="http://www.w3.org/2000/svg" version="1.1" inkscape:export-ydpi="92" inkscape:export-xdpi="92" sodipodi:modified="TRUE" inkscape:output_extension="org.inkscape.output.svg.inkscape" sodipodi:docname="log1.svg" inkscape:version="0.92.3 (2405546, 2018-03-11)" sodipodi:version="0.32" id="svg2" width="94.838824px" height="42.930532px" viewBox="0 0 94.838824 42.930532"><sodipodi:namedview inkscape:window-height="830" inkscape:window-width="1600" inkscape:pageshadow="2" inkscape:pageopacity="0" guidetolerance="10.0" gridtolerance="1" objecttolerance="10" borderopacity="1.0" bordercolor="#666666" pagecolor="#ffffff" id="base" showgrid="true" inkscape:grid-points="false" inkscape:zoom="1" inkscape:cx="1819.9466" inkscape:cy="152.36491" inkscape:window-x="0" inkscape:window-y="33" inkscape:current-layer="svg2" inkscape:object-paths="true" inkscape:grid-bbox="false" inkscape:object-bbox="false" showguides="true" inkscape:guide-bbox="true" inkscape:window-maximized="1" inkscape:snap-to-guides="true" inkscape:snap-grids="true" inkscape:snap-center="true" inkscape:snap-object-midpoints="true" inkscape:snap-midpoints="false" inkscape:snap-bbox="false" inkscape:bbox-paths="true" inkscape:bbox-nodes="true" inkscape:snap-bbox-edge-midpoints="true" inkscape:snap-bbox-midpoints="true" inkscape:snap-global="true" inkscape:object-nodes="true" inkscape:snap-nodes="false" inkscape:pagecheckerboard="true">
    <sodipodi:guide orientation="horizontal" position="32.975534" id="guide5056" inkscape:locked="false"/>
    <inkscape:grid type="xygrid" id="grid5900" empspacing="5" visible="true" enabled="true" snapvisiblegridlinesonly="true"/>
  </sodipodi:namedview>
  <metadata id="metadata13">
    <rdf:RDF>
      <cc:Work rdf:about="">
        <dc:format>image/svg+xml</dc:format>
        <dc:type rdf:resource="http://purl.org/dc/dcmitype/StillImage"/>
        <dc:title/>
      </cc:Work>
    </rdf:RDF>
  </metadata>
  <g inkscape:groupmode="layer" inkscape:label="log" transform="matrix(1.000000,0.000000,0.000000,1.000000,-1337.580600,-666.534740)"><g transform="translate(-292.37426,-414.74278)" id="icon_log" inkscape:label="1">
    <path inkscape:export-ydpi="92.212929" inkscape:export-xdpi="92.212929" inkscape:export-filename="/home/owhite/OpenStreetmap/rana/icons/bitmap/opt_logging.png" transform="translate(1967.2231,1026.2915)" d="m -275.7742,84.377518 a 4.4479709,4.4479709 0 0 1 -4.44797,4.447971 4.4479709,4.4479709 0 0 1 -4.44797,-4.447971 4.4479709,4.4479709 0 0 1 4.44797,-4.447971 4.4479709,4.4479709 0 0 1 4.44797,4.447971 z" sodipodi:ry="4.4479709" sodipodi:rx="4.4479709" sodipodi:cy="84.377518" sodipodi:cx="-280.22217" id="path5161-0-9" style="fill:#ffff00;fill-opacity:1;stroke:none" sodipodi:type="arc"/>
    <use inkscape:export-ydpi="92.212929" inkscape:export-xdpi="92.212929" inkscape:export-filename="/home/owhite/OpenStreetmap/rana/icons/bitmap/opt_logging.png" style="fill:#ffff00" height="600" width="1000" transform="translate(-10.389699,1.515187)" id="use5167-1-8" xlink:href="#path5161-0-9" y="0" x="0"/>
    <use inkscape:export-ydpi="92.212929" inkscape:export-xdpi="92.212929" inkscape:export-filename="/home/owhite/OpenStreetmap/rana/icons/bitmap/opt_logging.png" style="fill:#ffff00" height="600" width="1000" transform="translate(-11.688499,3.246787)" id="use5169-4-4" xlink:href="#use5167-1-8" y="0" x="0"/>
    <use inkscape:export-ydpi="92.212929" inkscape:export-xdpi="92.212929" inkscape:export-filename="/home/owhite/OpenStreetmap/rana/icons/bitmap/opt_logging.png" style="fill:#ffff00" height="600" width="1000" transform="translate(-12.121399,4.329089)" id="use5171-60-1" xlink:href="#use5169-4-4" y="0" x="0"/>
    <use inkscape:export-ydpi="92.212929" inkscape:export-xdpi="92.212929" inkscape:export-filename="/home/owhite/OpenStreetmap/rana/icons/bitmap/opt_logging.png" style="fill:#ffff00" height="600" width="1000" transform="translate(-11.039099,-0.21641296)" id="use5173-7-43" xlink:href="#use5171-60-1" y="0" x="0"/>
    <use inkscape:export-ydpi="92.212929" inkscape:export-xdpi="92.212929" inkscape:export-filename="/home/owhite/OpenStreetmap/rana/icons/bitmap/opt_logging.png" style="fill:#ffff00" height="600" width="1000" transform="translate(-7.359399,-7.792313)" id="use5175-1-9" xlink:href="#use5173-7-43" y="0" x="0"/>
    <use inkscape:export-ydpi="92.212929" inkscape:export-xdpi="92.212929" inkscape:export-filename="/home/owhite/OpenStreetmap/rana/icons/bitmap/opt_logging.png" style="fill:#ffff00" height="600" width="1000" transform="translate(10.822698,0.43288704)" id="use5177-7-88" xlink:href="#path5161-0-9" y="0" x="0"/>
    <use inkscape:export-ydpi="92.212929" inkscape:export-xdpi="92.212929" inkscape:export-filename="/home/owhite/OpenStreetmap/rana/icons/bitmap/opt_logging.png" style="fill:#ffff00" height="600" width="1000" transform="translate(11.039198,0.43288704)" id="use5179-7-0" xlink:href="#use5177-7-88" y="0" x="0"/>
    <path inkscape:export-ydpi="92.212929" inkscape:export-xdpi="92.212929" inkscape:export-filename="/home/owhite/OpenStreetmap/rana/icons/bitmap/opt_logging.png" sodipodi:type="arc" style="fill:#00ff00;fill-opacity:1;stroke:none" id="use5181-7-8" sodipodi:cx="-280.22217" sodipodi:cy="84.377518" sodipodi:rx="4.4479709" sodipodi:ry="4.4479709" d="m -275.7742,84.377518 a 4.4479709,4.4479709 0 0 1 -4.44797,4.447971 4.4479709,4.4479709 0 0 1 -4.44797,-4.447971 4.4479709,4.4479709 0 0 1 4.44797,-4.447971 4.4479709,4.4479709 0 0 1 4.44797,4.447971 z" transform="translate(1999.6911,1026.9408)"/>
    <path inkscape:export-filename="/home/owhite/OpenStreetmap/rana/icons/bitmap/opt_logging.png" inkscape:export-ydpi="92.212929" style="fill:#000000" inkscape:export-xdpi="92.212929" d="m 1715.2518,1099.7476 2.2212,4.0527 -3.8877,7.1738 1.0639,0.5614 3.5166,-6.4306 2.8245,5.1718 0.048,0.139 0.3711,0.4675 0.2283,0.1848 0.2323,0.1398 0.2777,0.1398 c 0.6751,0.3121 1.4798,0.236 2.1301,-0.092 l -4.7224,-8.7143 4.0744,-7.5014 c 0.6064,0.099 1.2359,-0.5188 1.1572,-1.1167 -0.03,-0.3036 -0.1712,-0.6034 -0.4158,-0.7913 l -7.2684,-5.4995 -0.1389,-0.095 -0.3225,-0.1849 -0.28,-0.1397 -0.3225,-0.094 -0.3256,-0.045 -0.3711,-0.049 -0.3225,0 -0.3256,0.049 -0.3224,0.094 -0.6473,0.2788 -0.4159,0.2796 -3.427,2.9361 c -0.4097,0.2547 -0.5879,0.8037 -0.6481,1.2556 -0.051,1.9841 -0.5269,4.5382 2.0831,4.7991 l 0,-4.5653 1.5276,-1.2588 0,7.0371 4.8612,0 0,-7.1769 4.8613,3.6824 -3.704,6.8499 -1.0192,-1.866 -0.045,-0.045 -0.049,-0.1398 -0.045,-0.094 0,-0.6065 -4.8612,0 0,0.4667 -0.045,0.1398 -0.048,0.094 0,0.1398 -0.045,0.045 -3.4718,6.3855 -3.4718,-6.3855 -0.045,-0.045 -0.049,-0.1398 -0.045,-0.094 0,-0.2338 -0.049,-0.091 0,-0.2819 -4.8127,0 c 0.027,0.2423 -0.012,0.4667 -0.045,0.7004 -1.7297,3.1489 -4.1199,6.2396 -5.1383,9.7371 -0.2075,0.9738 0.2925,2.1417 1.2028,2.5634 l 6.3889,-11.7879 4.6746,8.618 -0.1389,0.4217 -0.045,0.2788 -0.048,0.2788 0,0.2795 0.048,0.2788 c 0.2623,0.8317 0.4552,1.1617 1.2028,1.6323 l 0.4158,-0.7012 c 0.7893,0.7556 1.9196,0.9373 2.8724,0.4216 l -1.5284,-2.8903 4.6291,-8.618 z m -9.6771,-1.8171 -4.8126,0 0,-5.1718 -3.2396,5.1718 c -0.6002,-0.3883 -0.9945,-1.0919 -0.9736,-1.8172 -0.046,-0.6127 0.1689,-0.6849 0.3255,-1.119 l 4.258,-6.8491 0.093,-0.094 0.1844,-0.2307 0.1867,-0.1879 0.2291,-0.1856 c 0.8225,-0.5001 1.8532,-0.5824 2.6849,-0.048 0.4552,0.3331 0.6087,0.5971 0.8803,1.0739 l 0.093,0.2788 0.09,0.2788 0,4.3315 3.0559,3.0309 c -0.925,0.8464 -2.1548,0.8161 -3.0559,-0.049 l 0,1.5865 z m 8.472,-14.2116 c 0.1296,-3.0968 4.4238,-3.3422 4.8605,-0.1879 -0.024,3.3492 -4.6322,3.4797 -4.8605,0.1879 z m -12.3596,0 c 0.072,-3.0813 4.43,-3.3578 4.8158,-0.1879 0.055,3.3275 -4.6499,3.4859 -4.8158,0.1879" id="path5159-7-7"/>
  </g>
  </g></svg>
