<?xml version="1.0" encoding="UTF-8" standalone="no"?>
<!-- Generator: Adobe Illustrator 14.0.0, SVG Export Plug-In . SVG Version: 6.00 Build 43363)  -->

<svg
   xmlns:dc="http://purl.org/dc/elements/1.1/"
   xmlns:cc="http://creativecommons.org/ns#"
   xmlns:rdf="http://www.w3.org/1999/02/22-rdf-syntax-ns#"
   xmlns:svg="http://www.w3.org/2000/svg"
   xmlns="http://www.w3.org/2000/svg"
   xmlns:sodipodi="http://sodipodi.sourceforge.net/DTD/sodipodi-0.dtd"
   xmlns:inkscape="http://www.inkscape.org/namespaces/inkscape"
   version="1.1"
   id="icon-m-content-application-layer"
   x="0px"
   y="0px"
   width="48"
   height="48"
   viewBox="0 0 48 48"
   xml:space="preserve"
   inkscape:version="0.92.3 (2405546, 2018-03-11)"
   sodipodi:docname="menu_small.svg"
   inkscape:export-xdpi="90"
   inkscape:export-ydpi="90"><metadata
   id="metadata11112"><rdf:RDF><cc:Work
       rdf:about=""><dc:format>image/svg+xml</dc:format><dc:type
         rdf:resource="http://purl.org/dc/dcmitype/StillImage" /><dc:title></dc:title></cc:Work></rdf:RDF></metadata><defs
   id="defs11110"><filter
     id="filter11114"
     inkscape:label="Invert"
     x="0"
     y="0"
     width="1"
     height="1"
     inkscape:menu="Color"
     inkscape:menu-tooltip="Invert colors"
     style="color-interpolation-filters:sRGB"><feColorMatrix
       id="feColorMatrix11116"
       type="saturate"
       values="1"
       result="fbSourceGraphic" /><feColorMatrix
       id="feColorMatrix11118"
       in="fbSourceGraphic"
       values="-1 0 0 0 1 0 -1 0 0 1 0 0 -1 0 1 0 0 0 1 0 " /></filter><filter
     id="filter11120"
     inkscape:label="Invert"
     x="0"
     y="0"
     width="1"
     height="1"
     inkscape:menu="Color"
     inkscape:menu-tooltip="Invert colors"
     style="color-interpolation-filters:sRGB"><feColorMatrix
       id="feColorMatrix11122"
       type="saturate"
       values="1"
       result="fbSourceGraphic" /><feColorMatrix
       id="feColorMatrix11124"
       in="fbSourceGraphic"
       values="-1 0 0 0 1 0 -1 0 0 1 0 0 -1 0 1 0 0 0 1 0 " /></filter><filter
     id="filter11126"
     inkscape:label="Invert"
     x="0"
     y="0"
     width="1"
     height="1"
     inkscape:menu="Color"
     inkscape:menu-tooltip="Invert colors"
     style="color-interpolation-filters:sRGB"><feColorMatrix
       id="feColorMatrix11128"
       type="saturate"
       values="1"
       result="fbSourceGraphic" /><feColorMatrix
       id="feColorMatrix11130"
       in="fbSourceGraphic"
       values="-1 0 0 0 1 0 -1 0 0 1 0 0 -1 0 1 0 0 0 1 0 " /></filter><filter
     id="filter11132"
     inkscape:label="Invert"
     x="0"
     y="0"
     width="1"
     height="1"
     inkscape:menu="Color"
     inkscape:menu-tooltip="Invert colors"
     style="color-interpolation-filters:sRGB"><feColorMatrix
       id="feColorMatrix11134"
       type="saturate"
       values="1"
       result="fbSourceGraphic" /><feColorMatrix
       id="feColorMatrix11136"
       in="fbSourceGraphic"
       values="-1 0 0 0 1 0 -1 0 0 1 0 0 -1 0 1 0 0 0 1 0 " /></filter><filter
     id="filter11138"
     inkscape:label="Invert"
     x="0"
     y="0"
     width="1"
     height="1"
     inkscape:menu="Color"
     inkscape:menu-tooltip="Invert colors"
     style="color-interpolation-filters:sRGB"><feColorMatrix
       id="feColorMatrix11140"
       type="saturate"
       values="1"
       result="fbSourceGraphic" /><feColorMatrix
       id="feColorMatrix11142"
       in="fbSourceGraphic"
       values="-1 0 0 0 1 0 -1 0 0 1 0 0 -1 0 1 0 0 0 1 0 " /></filter></defs><sodipodi:namedview
   pagecolor="#ffffff"
   bordercolor="#666666"
   borderopacity="1"
   objecttolerance="10"
   gridtolerance="10"
   guidetolerance="10"
   inkscape:pageopacity="0"
   inkscape:pageshadow="2"
   inkscape:window-width="1600"
   inkscape:window-height="830"
   id="namedview11108"
   showgrid="false"
   inkscape:zoom="4.9166667"
   inkscape:cx="51.434094"
   inkscape:cy="7.0007056"
   inkscape:window-x="0"
   inkscape:window-y="33"
   inkscape:window-maximized="0"
   inkscape:current-layer="g20279"
   fit-margin-top="0"
   fit-margin-left="0"
   fit-margin-right="0"
   fit-margin-bottom="0" />
<g
   id="icon-m-content-application_1_">
	
	
	
	
	<g
   id="g20272"><g
     id="g20279"><g
       id="g20419"><rect
         id="rect11098"
         height="48"
         width="48"
         style="fill:none;filter:url(#filter11138)"
         x="0"
         y="0" /><path
         id="path11100"
         d="m 21.812,5.064 c 0,-0.033 0.002,-0.07 0.002,-0.113 C 21.805,4.564 21.783,3.654 21.171,2.642 20.65,1.732 19.494,0.933 18.038,0.779 18.011,0.775 17.982,0.776 17.957,0.775 17.784,0.759 17.606,0.747 17.426,0.752 h -5.14 V 0.756 H 7.217 C 5.45,0.709 4.021,1.613 3.427,2.654 2.809,3.672 2.791,4.584 2.78,4.959 c 0,0.045 0.001,0.083 0.001,0.113 L 2.811,15.41 C 2.81,15.442 2.81,15.482 2.81,15.524 c 0.008,0.387 0.03,1.296 0.643,2.308 0.592,1.032 2.004,1.926 3.745,1.893 h 10.185 c 0.041,0 0.083,10e-4 0.125,10e-4 0.142,0 0.278,-0.017 0.415,-0.024 0.053,-0.006 0.106,-0.006 0.157,-0.014 0.094,-0.012 0.184,-0.031 0.274,-0.047 1.318,-0.226 2.359,-0.975 2.844,-1.82 0.617,-1.018 0.639,-1.93 0.646,-2.307 -0.001,-0.043 -0.002,-0.08 -0.002,-0.111 z"
         style="fill:#cccccc;fill-opacity:1;filter:url(#filter11132)"
         inkscape:connector-curvature="0" /><path
         id="path11102"
         d="m 26.217,19.725 c 0,0.03 -10e-4,0.064 -10e-4,0.102 0.008,0.359 0.024,1.259 0.615,2.277 0.558,1.026 1.946,1.961 3.669,1.938 h 0.006 10.275 c 0.043,0.002 0.084,0.003 0.127,0.003 1.711,0 3.088,-0.891 3.668,-1.907 0.616,-1.02 0.637,-1.934 0.645,-2.305 0,-0.065 -0.003,-0.107 -0.003,-0.127 L 45.189,9.338 C 45.186,9.302 45.187,9.266 45.182,9.199 45.171,8.859 45.11,8.094 44.661,7.203 44.178,6.148 42.765,5.002 40.928,5.059 c -0.043,0 -0.102,0 -0.174,0.003 H 30.623 c -1.767,-0.047 -3.194,0.859 -3.791,1.898 -0.616,1.018 -0.638,1.934 -0.646,2.309 0,0.045 0.001,0.085 0.002,0.115 z M 29.48,9.268 c 0,0 0,-0.002 0,-0.018 0,-0.09 0.045,-0.408 0.148,-0.551 C 29.763,8.566 29.73,8.4 30.622,8.355 h 10.234 l 0.059,-0.004 h 0.013 c 0.731,0.055 0.625,0.147 0.81,0.369 0.062,0.118 0.112,0.285 0.134,0.418 0.022,0.131 0.022,0.207 0.022,0.207 l 0.03,10.422 c 0,0.053 0,0.063 0,0.063 0.011,0.042 -0.034,0.411 -0.148,0.567 -0.136,0.135 -0.102,0.303 -0.996,0.347 H 30.608 c 0,0 -0.013,0 -0.017,0 -0.017,0 -0.024,0 -0.024,0 C 29.734,20.697 29.801,20.557 29.659,20.413 29.56,20.27 29.513,19.968 29.508,19.86 L 29.51,19.825 29.48,9.275 Z"
         style="fill:#cccccc;fill-opacity:1;filter:url(#filter11126)"
         inkscape:connector-curvature="0" /><path
         id="path11104"
         d="m 45.191,32.486 c -0.01,-0.361 -0.025,-1.259 -0.609,-2.277 -0.553,-1.037 -1.967,-1.994 -3.711,-1.945 -0.02,0 -0.054,0 -0.105,0.004 H 30.625 c -1.768,-0.049 -3.198,0.855 -3.791,1.899 -0.618,1.019 -0.638,1.934 -0.648,2.31 0,0.046 0.001,0.084 0.002,0.116 l 0.029,10.345 c -10e-4,0.033 -10e-4,0.073 -10e-4,0.12 0.008,0.393 0.029,1.298 0.634,2.306 0.58,1.029 1.988,1.931 3.713,1.885 h 10.219 c 0.043,0 0.087,0.002 0.131,0.002 1.711,0 3.086,-0.891 3.668,-1.908 0.612,-1.021 0.633,-1.933 0.641,-2.305 0,-0.066 0,-0.111 0,-0.126 L 45.191,32.6 c -0.002,-0.024 0,-0.063 0,-0.114 z m -3.416,11.122 c -0.134,0.136 -0.101,0.302 -0.994,0.346 v 10e-4 H 30.62 c -0.03,0 -0.05,0 -0.058,0 -0.835,-0.047 -0.775,-0.188 -0.909,-0.315 -0.097,-0.132 -0.144,-0.446 -0.147,-0.552 0.002,-0.016 0.002,-0.027 0.002,-0.027 L 29.51,43.036 29.483,32.487 29.48,32.446 c 0.004,-0.105 0.051,-0.402 0.151,-0.539 0.133,-0.135 0.102,-0.301 0.994,-0.346 h 10.239 0.016 c 0.796,0.048 0.724,0.176 0.864,0.32 0.117,0.17 0.16,0.56 0.151,0.605 v 0.006 l -0.003,0.03 0.032,10.45 c 0.003,0.055 0.003,0.064 0.003,0.064 0.009,0.042 -0.035,0.414 -0.152,0.572 z"
         style="fill:#cccccc;fill-opacity:1;filter:url(#filter11120)"
         inkscape:connector-curvature="0" /><path
         id="path11106"
         d="M 17.393,28.266 H 7.219 C 5.448,28.219 4.02,29.129 3.427,30.172 2.81,31.192 2.79,32.104 2.78,32.479 c 0,0.041 0.001,0.079 0.003,0.108 L 2.81,42.913 c -10e-4,0.039 -0.002,0.091 -0.002,0.153 0.01,0.402 0.034,1.314 0.649,2.322 0.572,0.988 1.896,1.836 3.53,1.858 l 0.004,10e-4 h 10.385 c 0.043,0 0.087,0 0.129,0 1.664,0 3.021,-0.84 3.61,-1.844 0.622,-1.005 0.653,-1.922 0.66,-2.332 0,-0.051 -10e-4,-0.094 -10e-4,-0.126 l 0.009,-10.341 c 0.003,-0.045 0.004,-0.102 0.004,-0.176 -0.008,-0.426 -0.043,-1.342 -0.672,-2.333 -0.613,-1.015 -2.029,-1.851 -3.732,-1.831 m 1.099,14.81 c 0,0 -0.039,0.424 -0.146,0.562 -0.122,0.115 -0.084,0.275 -0.96,0.32 H 7.279 C 7.241,43.953 7.213,43.953 7.196,43.953 c -0.006,0 -0.011,0 -0.011,0 C 6.326,43.909 6.373,43.755 6.248,43.637 6.151,43.505 6.1,43.185 6.101,43.085 c 0.001,-0.02 0.001,-0.02 0.001,-0.02 L 6.104,43.032 6.078,32.498 6.075,32.458 c 10e-4,-0.097 0.048,-0.409 0.152,-0.551 0.135,-0.136 0.101,-0.302 0.992,-0.346 h 10.153 c 0.881,0.05 0.867,0.22 0.983,0.327 0.098,0.131 0.142,0.543 0.142,0.543 z"
         style="fill:#cccccc;fill-opacity:1;filter:url(#filter11114)"
         inkscape:connector-curvature="0" /></g></g></g>
</g>
</svg>