<?xml version='1.0' encoding='UTF-8'?>
<!-- Created with Inkscape (http://www.inkscape.org/) and export_objects.py -->
<svg xmlns:cc="http://creativecommons.org/ns#" xmlns:dc="http://purl.org/dc/elements/1.1/" xmlns:inkscape="http://www.inkscape.org/namespaces/inkscape" xmlns:rdf="http://www.w3.org/1999/02/22-rdf-syntax-ns#" xmlns:sodipodi="http://sodipodi.sourceforge.net/DTD/sodipodi-0.dtd" xmlns:xlink="http://www.w3.org/1999/xlink" xmlns="http://www.w3.org/2000/svg" version="1.1" inkscape:export-ydpi="92" inkscape:export-xdpi="92" sodipodi:modified="TRUE" inkscape:output_extension="org.inkscape.output.svg.inkscape" sodipodi:docname="options1.svg" inkscape:version="0.92.3 (2405546, 2018-03-11)" sodipodi:version="0.32" id="svg2" width="30.711953px" height="25.26404px" viewBox="0 0 30.711953 25.26404"><sodipodi:namedview inkscape:window-height="830" inkscape:window-width="1600" inkscape:pageshadow="2" inkscape:pageopacity="0" guidetolerance="10.0" gridtolerance="1" objecttolerance="10" borderopacity="1.0" bordercolor="#666666" pagecolor="#ffffff" id="base" showgrid="true" inkscape:grid-points="false" inkscape:zoom="1" inkscape:cx="1779.9466" inkscape:cy="32.36491" inkscape:window-x="0" inkscape:window-y="33" inkscape:current-layer="svg2" inkscape:object-paths="true" inkscape:grid-bbox="false" inkscape:object-bbox="false" showguides="true" inkscape:guide-bbox="true" inkscape:window-maximized="1" inkscape:snap-to-guides="true" inkscape:snap-grids="true" inkscape:snap-center="true" inkscape:snap-object-midpoints="true" inkscape:snap-midpoints="false" inkscape:snap-bbox="false" inkscape:bbox-paths="true" inkscape:bbox-nodes="true" inkscape:snap-bbox-edge-midpoints="true" inkscape:snap-bbox-midpoints="true" inkscape:snap-global="true" inkscape:object-nodes="true" inkscape:snap-nodes="false" inkscape:pagecheckerboard="true">
    <sodipodi:guide orientation="horizontal" position="32.975534" id="guide5056" inkscape:locked="false"/>
    <inkscape:grid type="xygrid" id="grid5900" empspacing="5" visible="true" enabled="true" snapvisiblegridlinesonly="true"/>
  </sodipodi:namedview>
  <metadata id="metadata13">
    <rdf:RDF>
      <cc:Work rdf:about="">
        <dc:format>image/svg+xml</dc:format>
        <dc:type rdf:resource="http://purl.org/dc/dcmitype/StillImage"/>
        <dc:title/>
      </cc:Work>
    </rdf:RDF>
  </metadata>
  <g inkscape:groupmode="layer" inkscape:label="options" transform="matrix(1.000000,0.000000,0.000000,1.000000,-1744.720000,-564.250120)"><g style="stroke:#000000;stroke-width:0.40000001;stroke-miterlimit:4;stroke-opacity:1;stroke-dasharray:none" id="icon_navigation" inkscape:label="1" transform="matrix(0,1,-1,0,2097.1383,726.04017)">
    <g style="stroke:#000000;stroke-width:8.42157078;stroke-miterlimit:4;stroke-opacity:1;stroke-dasharray:none" transform="matrix(0,-0.04749708,0.04749708,0,-175.67848,336.7794)" id="g10551">
      <g style="stroke:#000000;stroke-width:8.42157078;stroke-miterlimit:4;stroke-opacity:1;stroke-dasharray:none;display:inline" id="layer2-2"/>
      <g style="stroke:#000000;stroke-width:8.42157078;stroke-miterlimit:4;stroke-opacity:1;stroke-dasharray:none" transform="translate(-297.74749,39.079357)" id="g10573">
        <g transform="translate(-87.462478,136.77786)" style="stroke:#000000;stroke-width:8.42157078;stroke-miterlimit:4;stroke-opacity:1;stroke-dasharray:none;display:inline" id="layer3-9"/>
        <g transform="translate(-87.462478,136.77786)" style="fill:#8d8919;fill-opacity:1;fill-rule:evenodd;stroke:#000000;stroke-width:8.42157078;stroke-miterlimit:4;stroke-opacity:1;stroke-dasharray:none;display:inline" id="layer7-1">
          <path inkscape:connector-curvature="0" id="path9973" transform="matrix(1.2808989,0,0,1.0576923,-100.68462,-8.5368047)" style="fill:#8d8919;fill-opacity:1;fill-rule:evenodd;stroke:#000000;stroke-width:7.23529053;stroke-linejoin:round;stroke-miterlimit:4;stroke-opacity:1;stroke-dasharray:none" d="m 394.32126,168.93724 c 0,11.57321 -8.03802,20.96596 -17.94202,20.96596 -9.90399,0 -17.94202,-9.39275 -17.94202,-20.96596 0,-11.57321 8.03803,-20.96596 17.94202,-20.96596 9.904,0 17.94202,9.39275 17.94202,20.96596 z m -58.9411,199.98665 c 22.92259,5.69918 47.51775,7.57786 76.96182,-2.04895 L 394.3907,285.98592 361.34887,252.22926 335.38016,368.92389 z m -63.53477,-35.89194 72.11231,-93.33461 -27.39473,122.92857 c -18.52512,-7.90555 -32.69921,-18.6543 -44.71758,-29.59396 z m 131.29824,-98.60839 71.68462,92.78931 c -13.23159,13.56342 -28.05986,23.61933 -43.96556,32.12182 L 403.14363,234.42356 z m 59.61198,270.01525 c 28.48733,-10.87744 55.96459,-22.75299 100.19142,-62.65343 l -75.02034,-97.44885 c -15.29282,16.43898 -32.73276,28.89897 -52.2224,37.7142 l 27.05132,122.38808 z m -158.68179,5.75168 c 42.39606,11.96847 88.89032,14.75722 140.2569,-0.0323 l -26.9327,-120.88781 c -29.17911,9.69582 -58.29065,9.71842 -87.05026,2.14185 L 304.07382,510.19049 z M 258.71878,350.09737 c 14.56453,13.8812 31.72385,25.95004 52.99303,34.75653 L 285.35442,503.76494 C 247.56651,490.6688 215.67604,469.17619 186.68284,443.40068 l 72.03594,-93.30331 z M 125.9024,456.72706 c 142.06545,158.46009 345.71168,169.12631 497.57229,-1.81945 l -33.72051,-40.97139 c -3.82882,5.77655 -7.81488,9.83934 -11.85226,13.34265 l -182.12414,-237.20273 18.02879,-35.04131 -33.60923,-33.15447 -38.95108,22.10298 13.57723,47.44055 -183.23703,237.53966 c -4.14634,-4.31076 -8.16943,-8.92004 -12.01919,-13.94913 l -33.66487,41.71264 z"/>
        </g>
        <g transform="translate(-87.462478,136.77786)" style="stroke:#000000;stroke-width:8.42157078;stroke-miterlimit:4;stroke-opacity:1;stroke-dasharray:none;display:inline" id="layer4-3">
          <path inkscape:connector-curvature="0" transform="matrix(0.6764923,0,0,0.7435499,119.44943,40.368231)" d="m 457.21914,174.38033 c 0,35.05346 -31.15864,63.50265 -69.55053,63.50265 -38.39189,0 -69.55053,-28.44919 -69.55053,-63.50265 0,-35.05347 31.15864,-63.50266 69.55053,-63.50266 38.39189,0 69.55053,28.44919 69.55053,63.50266 z" style="fill:none;stroke:#000000;stroke-width:11.8742609;stroke-linejoin:round;stroke-miterlimit:4;stroke-opacity:1;stroke-dasharray:none;display:inline" id="path13857"/>
          <path inkscape:connector-curvature="0" d="m 321.30707,602.90588 117.17588,0 0,41.33942 -117.17588,0 0,-41.33942 z" style="fill:#d7e74a;fill-opacity:1;stroke:#000000;stroke-width:8.42157078;stroke-linejoin:round;stroke-miterlimit:4;stroke-opacity:1;stroke-dasharray:none" id="rect13853"/>
          <path inkscape:connector-curvature="0" d="m 358.37,212.88988 49.17965,0 0,401.42001 -49.17965,0 0,-401.42001 z" style="fill:#d7e74a;fill-opacity:1;stroke:#000000;stroke-width:8.42157078;stroke-linejoin:round;stroke-miterlimit:4;stroke-opacity:1;stroke-dasharray:none" id="rect13855"/>
        </g>
        <g transform="translate(-87.462478,136.77786)" style="stroke:#000000;stroke-width:8.42157078;stroke-miterlimit:4;stroke-opacity:1;stroke-dasharray:none;display:inline" id="layer5-5">
          <path inkscape:connector-curvature="0" d="m 117.01924,303.56824 35.48473,0 0,127.29993 -35.48473,0 0,-127.29993 z" transform="matrix(0.9298939,-0.3678279,0.3677903,0.9299088,0,0)" style="fill:#7b85f0;fill-opacity:1;stroke:#000000;stroke-width:8.42156982;stroke-linejoin:round;stroke-miterlimit:4;stroke-opacity:1;stroke-dasharray:none" id="rect15802"/>
        </g>
        <path inkscape:connector-curvature="0" d="m 351.58978,391.86235 155.09408,0 c 5.05424,0 9.12318,4.06894 9.12318,9.12319 l 0,35.35233 c 0,5.05425 -4.06894,9.12319 -9.12318,9.12319 l -155.09408,0 c -5.05424,0 -9.12318,-4.06894 -9.12318,-9.12319 l 0,-35.35233 c 0,-5.05425 4.06894,-9.12319 9.12318,-9.12319 z" style="fill:#eaf682;fill-opacity:1;stroke:#000000;stroke-width:8.42157078;stroke-linejoin:round;stroke-miterlimit:4;stroke-opacity:1;stroke-dasharray:none" id="rect16773"/>
      </g>
    </g>
  </g>
  </g></svg>
