<?xml version="1.0" encoding="UTF-8" standalone="no"?>
<!-- Created with Inkscape (http://www.inkscape.org/) -->

<svg
   xmlns:dc="http://purl.org/dc/elements/1.1/"
   xmlns:cc="http://creativecommons.org/ns#"
   xmlns:rdf="http://www.w3.org/1999/02/22-rdf-syntax-ns#"
   xmlns:svg="http://www.w3.org/2000/svg"
   xmlns="http://www.w3.org/2000/svg"
   xmlns:sodipodi="http://sodipodi.sourceforge.net/DTD/sodipodi-0.dtd"
   xmlns:inkscape="http://www.inkscape.org/namespaces/inkscape"
   width="28.351343mm"
   height="38.304241mm"
   viewBox="0 0 28.351343 38.304241"
   version="1.1"
   id="svg6299"
   inkscape:version="0.92.2 2405546, 2018-03-11"
   sodipodi:docname="search.svg">
  <defs
     id="defs6293" />
  <sodipodi:namedview
     id="base"
     pagecolor="#ffffff"
     bordercolor="#666666"
     borderopacity="1.0"
     inkscape:pageopacity="0.0"
     inkscape:pageshadow="2"
     inkscape:zoom="0.35"
     inkscape:cx="1079.2916"
     inkscape:cy="-341.89973"
     inkscape:document-units="mm"
     inkscape:current-layer="layer1"
     showgrid="false"
     fit-margin-top="0"
     fit-margin-left="0"
     fit-margin-right="0"
     fit-margin-bottom="0"
     inkscape:window-width="1600"
     inkscape:window-height="830"
     inkscape:window-x="0"
     inkscape:window-y="33"
     inkscape:window-maximized="1" />
  <metadata
     id="metadata6296">
    <rdf:RDF>
      <cc:Work
         rdf:about="">
        <dc:format>image/svg+xml</dc:format>
        <dc:type
           rdf:resource="http://purl.org/dc/dcmitype/StillImage" />
        <dc:title></dc:title>
      </cc:Work>
    </rdf:RDF>
  </metadata>
  <g
     inkscape:label="Layer 1"
     inkscape:groupmode="layer"
     id="layer1"
     transform="translate(179.72924,-20.068121)">
    <g
       id="icon_search"
       inkscape:label="#g5861"
       transform="matrix(0.15732949,0,0,0.17055503,-137.26765,-107.82698)">
      <g
         inkscape:export-ydpi="92.209999"
         inkscape:export-xdpi="92.209999"
         inkscape:export-filename="/home/owhite/OpenStreetmap/rana/icons/bitmap/park.png"
         transform="matrix(1.1395005,0,0,1.1395005,59.039343,166.00618)"
         id="g11056-1-2">
        <g
           transform="matrix(0.37508595,0,0,0.34600023,-398.49524,467.17907)"
           id="layer1-6"
           inkscape:label="Layer 1">
          <g
             transform="matrix(2.7280248,-1.5750258,1.5750258,2.7280248,-4092.2302,1189.3511)"
             id="g2859">
            <circle
               r="45"
               cy="469.36218"
               cx="1385"
               style="fill:#cccccc;stroke:none"
               id="path2839"
               transform="translate(8.000033,8.0000102)" />
            <path
               style="fill:#000000;stroke:none"
               d="m 1393,424.375 c -29.256,0 -53,23.74401 -53,53 0,25.98023 18.7251,47.60616 43.4062,52.125 -0.1852,4.0398 -3.9062,85.12844 -3.9062,85.25 0,3.657 6.0438,6.62498 13.5,6.625 7.4562,0 13.5,-2.96802 13.5,-6.625 l -3.9062,-85.25 C 1427.2749,524.98116 1446,503.35524 1446,477.375 c 0,-29.256 -23.744,-52.99999 -53,-53 z m 0,8 c 24.84,10e-6 45,20.16 45,45 0,24.84001 -20.16,45 -45,45 -24.84,10e-6 -45,-20.16 -45,-45 0,-24.83999 20.16,-45 45,-45 z"
               id="path2841"
               inkscape:connector-curvature="0" />
            <path
               style="fill:#f2f2f2;stroke:none"
               d="m 1393,432.375 c -22.6185,0 -41.3293,16.69398 -44.5,38.4375 6.622,3.83512 14.3021,6.0625 22.5,6.0625 22.6185,0 41.3293,-16.72522 44.5,-38.46875 -6.622,-3.83512 -14.3021,-6.03125 -22.5,-6.03125 z"
               id="path2854"
               inkscape:connector-curvature="0" />
          </g>
        </g>
      </g>
    </g>
  </g>
</svg>
