<?xml version='1.0' encoding='UTF-8'?>
<!-- Created with Inkscape (http://www.inkscape.org/) and export_objects.py -->
<svg xmlns:cc="http://creativecommons.org/ns#" xmlns:dc="http://purl.org/dc/elements/1.1/" xmlns:inkscape="http://www.inkscape.org/namespaces/inkscape" xmlns:rdf="http://www.w3.org/1999/02/22-rdf-syntax-ns#" xmlns:sodipodi="http://sodipodi.sourceforge.net/DTD/sodipodi-0.dtd" xmlns:xlink="http://www.w3.org/1999/xlink" xmlns="http://www.w3.org/2000/svg" version="1.1" inkscape:export-ydpi="92" inkscape:export-xdpi="92" sodipodi:modified="TRUE" inkscape:output_extension="org.inkscape.output.svg.inkscape" sodipodi:docname="speedometer1.svg" inkscape:version="0.92.3 (2405546, 2018-03-11)" sodipodi:version="0.32" id="svg2" width="33.627px" height="33.627351px" viewBox="0 0 33.627 33.627351"><sodipodi:namedview inkscape:window-height="830" inkscape:window-width="1600" inkscape:pageshadow="2" inkscape:pageopacity="0" guidetolerance="10.0" gridtolerance="1" objecttolerance="10" borderopacity="1.0" bordercolor="#666666" pagecolor="#ffffff" id="base" showgrid="true" inkscape:grid-points="false" inkscape:zoom="1" inkscape:cx="2019.9466" inkscape:cy="352.36491" inkscape:window-x="0" inkscape:window-y="33" inkscape:current-layer="svg2" inkscape:object-paths="true" inkscape:grid-bbox="false" inkscape:object-bbox="false" showguides="true" inkscape:guide-bbox="true" inkscape:window-maximized="1" inkscape:snap-to-guides="true" inkscape:snap-grids="true" inkscape:snap-center="true" inkscape:snap-object-midpoints="true" inkscape:snap-midpoints="false" inkscape:snap-bbox="false" inkscape:bbox-paths="true" inkscape:bbox-nodes="true" inkscape:snap-bbox-edge-midpoints="true" inkscape:snap-bbox-midpoints="true" inkscape:snap-global="true" inkscape:object-nodes="true" inkscape:snap-nodes="false" inkscape:pagecheckerboard="true">
    <sodipodi:guide orientation="horizontal" position="32.975534" id="guide5056" inkscape:locked="false"/>
    <inkscape:grid type="xygrid" id="grid5900" empspacing="5" visible="true" enabled="true" snapvisiblegridlinesonly="true"/>
  </sodipodi:namedview>
  <metadata id="metadata13">
    <rdf:RDF>
      <cc:Work rdf:about="">
        <dc:format>image/svg+xml</dc:format>
        <dc:type rdf:resource="http://purl.org/dc/dcmitype/StillImage"/>
        <dc:title/>
      </cc:Work>
    </rdf:RDF>
  </metadata>
  <g inkscape:groupmode="layer" inkscape:label="speedometer" transform="matrix(1.000000,0.000000,0.000000,1.000000,-1743.686500,-518.073070)"><g id="icon_speedometer" transform="matrix(0.35064285,0,0,0.35064285,1742.8674,517.52537)" inkscape:label="1">
    <path id="path7866" d="m 50.287,97.464 c -26.44,0 -47.951,-21.512 -47.951,-47.95 0,-26.439 21.511,-47.952 47.951,-47.952 26.44,0 47.95,21.512 47.95,47.952 0,26.438 -21.509,47.95 -47.95,47.95 z m 0,-88.453 c -22.332,0 -40.501,18.169 -40.501,40.502 0,22.332 18.169,40.501 40.501,40.501 22.333,0 40.501,-18.17 40.501,-40.501 C 90.788,27.18 72.62,9.011 50.287,9.011 z" inkscape:connector-curvature="0"/>
    <path id="path7868" d="m 55.396,46.507 c -0.257,-0.251 -0.527,-0.466 -0.811,-0.659 l 0.023,-0.032 c 0,0 -22.539,-16.18 -23.365,-15.349 -0.83,0.833 15.348,23.366 15.348,23.366 l 0.029,-0.028 c 0.195,0.289 0.411,0.559 0.662,0.812 2.239,2.238 5.871,2.238 8.113,0 2.23,-2.238 2.23,-5.871 10e-4,-8.11 z" inkscape:connector-curvature="0"/>
    <path id="path7870" d="m 50.287,24.999 c -1.035,0 -1.875,-0.84 -1.875,-1.875 v -5.078 c 0,-1.035 0.84,-1.875 1.875,-1.875 l 0,0 c 1.036,0 1.875,0.84 1.875,1.875 v 5.078 c 0,1.035 -0.839,1.875 -1.875,1.875 l 0,0 z" inkscape:connector-curvature="0"/>
    <path id="path7872" d="m 37.952,28.304 c -0.896,0.518 -2.044,0.21 -2.562,-0.687 L 32.851,23.22 c -0.518,-0.896 -0.21,-2.044 0.687,-2.562 l 0,0 c 0.897,-0.518 2.044,-0.21 2.562,0.687 l 2.539,4.397 c 0.517,0.897 0.211,2.044 -0.687,2.562 l 0,0 z" inkscape:connector-curvature="0"/>
    <path id="path7874" d="m 28.922,37.333 c -0.518,0.896 -1.664,1.204 -2.561,0.686 L 21.963,35.48 C 21.067,34.962 20.76,33.815 21.277,32.918 l 0,0 c 0.518,-0.897 1.665,-1.204 2.562,-0.687 l 4.397,2.539 c 0.897,0.52 1.204,1.666 0.686,2.563 l 0,0 z" inkscape:connector-curvature="0"/>
    <path id="path7876" d="m 25.617,49.668 c 0,1.035 -0.84,1.875 -1.875,1.875 l -5.078,10e-4 c -1.035,0 -1.875,-0.841 -1.875,-1.876 l 0,0 c 0,-1.036 0.841,-1.875 1.876,-1.875 h 5.077 c 1.035,0 1.875,0.839 1.875,1.875 l 0,0 z" inkscape:connector-curvature="0"/>
    <path id="path7878" d="m 28.923,62.003 c 0.518,0.896 0.21,2.043 -0.687,2.561 l -4.398,2.541 c -0.896,0.518 -2.043,0.209 -2.561,-0.688 l 0,0 c -0.519,-0.896 -0.21,-2.045 0.687,-2.562 l 4.397,-2.538 c 0.897,-0.518 2.043,-0.211 2.562,0.686 l 0,0 z" inkscape:connector-curvature="0"/>
    <path id="path7880" d="m 37.953,71.032 c 0.896,0.518 1.203,1.664 0.686,2.561 l -2.539,4.4 c -0.517,0.896 -1.665,1.202 -2.562,0.685 l 0,0 C 32.641,78.161 32.334,77.012 32.851,76.116 L 35.39,71.72 c 0.518,-0.898 1.665,-1.205 2.563,-0.688 l 0,0 z" inkscape:connector-curvature="0"/>
    <path id="path7882" d="m 62.621,71.032 c 0.896,-0.518 2.044,-0.211 2.562,0.686 l 2.541,4.399 c 0.519,0.896 0.208,2.042 -0.688,2.56 l 0,0 c -0.895,0.52 -2.045,0.211 -2.562,-0.686 l -2.537,-4.396 c -0.519,-0.897 -0.213,-2.043 0.684,-2.563 l 0,0 z" inkscape:connector-curvature="0"/>
    <path id="path7884" d="m 71.65,62.003 c 0.518,-0.896 1.665,-1.205 2.562,-0.688 l 4.4,2.54 c 0.896,0.517 1.2,1.665 0.683,2.562 l 0,0 c -0.514,0.896 -1.664,1.205 -2.561,0.688 L 72.338,64.566 C 71.441,64.048 71.133,62.901 71.65,62.003 l 0,0 z" inkscape:connector-curvature="0"/>
    <path id="path7886" d="m 74.955,49.668 c 0,-1.035 0.84,-1.876 1.875,-1.876 l 5.081,0 c 1.034,-0.001 1.872,0.842 1.872,1.877 l 0,0 c 0.004,1.033 -0.839,1.876 -1.874,1.876 l -5.077,-0.001 c -1.035,0 -1.875,-0.839 -1.877,-1.876 l 0,0 z" inkscape:connector-curvature="0"/>
    <path id="path7888" d="m 71.65,37.334 c -0.518,-0.896 -0.211,-2.044 0.686,-2.562 l 4.4,-2.541 c 0.895,-0.518 2.042,-0.207 2.56,0.689 l 0,0 c 0.521,0.893 0.212,2.044 -0.685,2.562 l -4.398,2.538 c -0.897,0.518 -2.042,0.211 -2.563,-0.686 l 0,0 z" inkscape:connector-curvature="0"/>
    <path id="path7890" d="M 62.621,28.305 C 61.725,27.787 61.416,26.64 61.933,25.743 l 2.541,-4.401 c 0.516,-0.896 1.664,-1.2 2.561,-0.683 l 0,0 c 0.898,0.513 1.206,1.664 0.688,2.561 l -2.54,4.397 c -0.517,0.897 -1.662,1.205 -2.562,0.688 l 0,0 z" inkscape:connector-curvature="0"/>
  </g>
  </g></svg>
