<?xml version="1.0" encoding="UTF-8" standalone="no"?>
<!-- Created with Inkscape (http://www.inkscape.org/) -->

<svg
   xmlns:svg="http://www.w3.org/2000/svg"
   xmlns="http://www.w3.org/2000/svg"
   version="1.1"
   width="117.12024"
   height="117.12024"
   id="svg2">
  <defs
     id="defs6129" />
  <g
     transform="translate(-590.01129,-376.65921)"
     id="layer1">
    <rect
       width="111.12024"
       height="111.12024"
       rx="22"
       ry="22"
       x="593.01129"
       y="379.65921"
       id="rect13050-1-6-00-1"
       style="fill:#92aaf3;fill-opacity:1;stroke:#3d60fa;stroke-width:6;stroke-linejoin:round;stroke-miterlimit:4;stroke-opacity:1;stroke-dasharray:none" />
    <g
       transform="matrix(1.2778691,0,0,1.2778691,621.97232,387.83337)"
       id="g4318-6-7">
      <path
         d="M 41.596238,20.522 C 41.598847,31.848472 32.419858,41.031776 21.0961,41.031776 9.7723411,41.031776 0.59335239,31.848472 0.59596119,20.522 0.59335239,9.1955302 9.7723411,0.01222566 21.0961,0.01222566 c 11.323758,0 20.502747,9.18330454 20.500138,20.50977434 l 0,0 z"
         id="path1307-4-1-4"
         style="fill:#2268c9;fill-opacity:1;stroke:#304b70;stroke-width:0;stroke-linecap:round;stroke-linejoin:miter;stroke-miterlimit:4;stroke-opacity:1;stroke-dasharray:none;stroke-dashoffset:0" />
      <g
         transform="matrix(0.6567274,0,0,0.5900984,-47.466632,-35.594698)"
         id="g2095-1-3-0"
         style="fill:#ffffff;fill-opacity:1;fill-rule:nonzero;stroke:#ffffff;stroke-opacity:1;display:inline">
        <g
           transform="translate(37.683594,0)"
           id="g3490-1-8-9"
           style="fill:#ffffff;fill-opacity:1;fill-rule:nonzero;stroke:none">
          <g
             id="g3480-3-9-4"
             style="fill:#ffffff;fill-opacity:1;fill-rule:nonzero;stroke:none">
            <g
               id="g3469-8-3-8"
               style="opacity:0.2;fill:#ffffff;fill-opacity:1;fill-rule:nonzero;stroke:none">
              <path
                 d="m 64.0625,84.875 -6.5625,0.59375 0,2.03125 9.5625,-0.875 -3,-1.75 z"
                 id="rect3359-7-4-8"
                 style="opacity:0.35135133;fill:#ffffff;fill-opacity:1;fill-rule:nonzero;stroke:none;stroke-width:1;marker:none;visibility:visible;display:inline;overflow:visible" />
              <path
                 d="M 70.0625,88.34375 57.5,89.5 l 0,3 17.0625,-1.5625 -4.5,-2.59375 z"
                 id="rect3361-4-4-2"
                 style="opacity:0.35135133;fill:#ffffff;fill-opacity:1;fill-rule:nonzero;stroke:none;stroke-width:1;marker:none;visibility:visible;display:inline;overflow:visible" />
              <path
                 d="M 70.59375,101.34375 57.5,102.5625 l 0,6.34375 13.09375,-7.5625 z"
                 id="rect3365-2-6-4"
                 style="opacity:0.35135133;fill:#ffffff;fill-opacity:1;fill-rule:nonzero;stroke:none;stroke-width:1;marker:none;visibility:visible;display:inline;overflow:visible" />
            </g>
            <path
               d="m 57.49988,108.90574 0,-27.811485 24.103287,13.905743 -24.103287,13.905742 z"
               id="path2479-7-0-5"
               style="fill:#ffffff;fill-opacity:1;fill-rule:nonzero;stroke:none;stroke-width:1.00000036;marker:none;visibility:visible;display:inline;overflow:visible" />
            <path
               d="m 57.99988,81.96874 0,26.0625 L 80.59363,94.99999 57.99988,81.96874 z m 1,1.75 19.5625,11.28125 -19.5625,11.28125 0,-22.5625 z"
               id="path2481-7-6-5"
               style="fill:#ffffff;fill-opacity:1;fill-rule:nonzero;stroke:none;stroke-width:3;marker:none;visibility:visible;display:inline;overflow:visible" />
          </g>
        </g>
      </g>
    </g>
  </g>
</svg>
